<svg width="340" height="134" viewBox="0 0 340 134" fill="none" xmlns="http://www.w3.org/2000/svg">
<path d="M39.1634 73.5341C43.4467 73.2011 47.1658 73.1491 53.0685 73.1491C62.0007 73.1491 65.0931 75.2304 62.3873 82.2859C60.5904 86.896 58.4174 89.1334 53.6326 89.5705L53.5072 89.8722C58.7308 90.3093 59.5979 93.6082 57.4145 99.1444C54.8027 105.857 50.7283 107.47 42.3393 107.47C34.7338 107.47 30.6908 107.47 26 107.084L39.1634 73.5341ZM42.1303 100.164C45.2645 100.164 46.2465 99.4878 47.5628 96.1785C48.6075 93.4625 48.3046 92.8797 45.86 92.8797H41.9109L39.0484 100.164H42.1303ZM47.6569 86.511C50.1433 86.511 50.9268 85.9282 52.0969 83.0144C52.8804 81.0684 52.5983 80.4336 50.8955 80.4336H46.8002L44.3869 86.511H47.6569Z" fill="#F7F7FA"/>
<path d="M94.5537 90.6948C89.2361 104.493 83.6365 107.75 73.0118 107.75C61.3528 107.75 58.3858 103.712 63.7974 89.9144C69.209 76.1165 74.6102 72.8699 85.0991 72.8699C96.2148 72.8699 99.9235 76.7408 94.5537 90.6948ZM74.7042 90.6948C71.5701 98.3638 71.7999 99.9247 75.2579 99.9247C78.9144 99.9247 80.2725 98.2181 83.6156 89.9144C86.7497 82.287 86.4781 80.6846 83.0201 80.6846C79.5621 80.6846 78.11 82.3807 74.7042 90.6948Z" fill="#F7F7FA"/>
<path d="M123.806 103.623C122.855 105.996 121.466 107.068 119.074 107.068H115.563C113.369 107.068 113.056 105.808 112.628 103.81L109.776 92.2995C109.419 90.4732 109.31 88.6076 109.452 86.7524H109.117C108.652 88.8765 108.031 90.9636 107.258 92.9968L101.616 107.088H91.911L103.716 77.032C104.657 74.6487 106.056 73.5768 108.438 73.5768H111.949C114.153 73.5768 114.404 74.8881 114.842 76.8342L117.747 87.7723C118.182 89.6661 118.382 91.606 118.342 93.5484H118.729C119.032 91.6043 119.547 89.6989 120.265 87.866L125.906 73.5768H135.611L123.806 103.623Z" fill="#F7F7FA"/>
<path d="M140.125 99.9257L135.695 107.065H124.736L145.505 76.0628C145.95 75.3041 146.583 74.6727 147.345 74.2296C148.106 73.7865 148.97 73.5469 149.851 73.534H159.41C159.788 73.5097 160.167 73.571 160.517 73.7133C160.868 73.8556 161.182 74.0752 161.435 74.3556C161.689 74.636 161.875 74.9699 161.98 75.3323C162.085 75.6947 162.107 76.0761 162.043 76.4479L158.679 107.065H148.096L149.277 99.9257H140.125ZM151.878 85.0127C152.088 83.7443 152.389 82.4924 152.776 81.2663H151.366C150.828 82.5293 150.196 83.7503 149.475 84.9191L144.899 92.2559H150.603L151.878 85.0127Z" fill="#F7F7FA"/>
<path d="M221.162 81.4112C219.397 81.4112 218.592 81.89 218.028 83.347L216.555 87.0937H228.308L225.675 94.0874H213.818L208.751 107.065H198.116L208.438 80.7764C209.204 78.6203 210.618 76.751 212.487 75.4219C214.355 74.0927 216.589 73.3679 218.885 73.3455C224.693 73.3455 231.066 73.3455 235.381 74.074L232.372 81.4112H221.162Z" fill="#F7F7FA"/>
<path d="M225.916 107.064L239.121 73.5373H249.652L236.488 107.064H225.916Z" fill="#F7F7FA"/>
<path d="M254.791 73.5347C258.625 73.2433 263.556 73.056 268.623 73.056C279.551 73.056 283.521 76.8853 278.088 90.7457C272.813 104.148 268.049 107.603 256.63 107.603C250.727 107.603 246.047 107.405 241.628 107.114L254.791 73.5347ZM258.354 99.9235C261.665 99.9235 263.922 98.321 267.108 89.9132C269.981 82.3795 270.075 80.6834 266.314 80.6834H262.512L255 99.9235H258.354Z" fill="#F7F7FA"/>
<path d="M298.377 81.4111C297.728 81.3072 297.063 81.4479 296.513 81.8058C295.962 82.1637 295.565 82.7132 295.399 83.347L294.188 86.4692H306.338L303.694 93.4631H291.45L289.936 97.3556C289.424 98.6149 289.852 99.2498 291.262 99.2498H302.974L300.884 106.733C295.356 107.246 289.803 107.441 284.252 107.316C278.684 107.316 276.939 103.475 279.029 98.1778L285.83 80.8283C286.575 78.6486 287.991 76.7578 289.875 75.4241C291.76 74.0904 294.018 73.3813 296.329 73.3973C301.941 73.2732 307.555 73.4992 313.139 74.0738L310.109 81.4632L298.377 81.4111Z" fill="#F7F7FA"/>
<path d="M185.915 32.4133C157.969 45.9407 155.346 65.1808 169.387 65.7114C176.669 66.0028 163.986 49.6555 185.915 32.4133Z" fill="#F7F7FA"/>
<path d="M213.735 25C176.24 35.2921 166.545 67.23 187.314 67.4173C183.992 75.3784 175.101 100.271 177.316 108.17C221.142 68.7077 193.561 51.6305 213.735 25Z" fill="#F7F7FA"/>
<path d="M180.617 70.9761L172.259 97.5037C172.259 97.5037 168.363 77.4805 174.077 71.9023C176.825 69.2797 180.617 70.9761 180.617 70.9761Z" fill="#F7F7FA"/>
</svg>
