<svg width="340" height="134" viewBox="0 0 340 134" fill="none" xmlns="http://www.w3.org/2000/svg">
<path fill-rule="evenodd" clip-rule="evenodd" d="M111.929 95.6527C114.798 95.6527 117.331 95.088 119.529 93.9563C121.723 92.8269 123.42 91.228 124.617 89.162C125.811 87.0971 126.411 84.6927 126.411 81.9524C126.411 77.7781 125.095 74.4948 122.463 72.1025C119.831 69.7113 116.32 68.5145 111.929 68.5145H106.71V95.6527H111.929ZM97.9035 60.5561H111.994C116.559 60.5561 120.627 61.4483 124.193 63.2314C127.758 65.0145 130.529 67.5152 132.509 70.7323C134.488 73.9518 135.479 77.6914 135.479 81.9524C135.479 86.1291 134.488 89.8591 132.509 93.1412C130.529 96.4257 127.758 98.9914 124.193 100.84C120.627 102.688 116.559 103.611 111.994 103.611H97.9035V60.5561Z" fill="#F7F7FA"/>
<path fill-rule="evenodd" clip-rule="evenodd" d="M169.301 94.4462C171.411 93.2506 173.061 91.5759 174.259 89.4231C175.455 87.2703 176.052 84.8238 176.052 82.0835C176.052 79.389 175.455 76.9629 174.259 74.8101C173.061 72.6574 171.411 70.9718 169.301 69.7545C167.191 68.5373 164.832 67.9281 162.223 67.9281C159.571 67.9281 157.2 68.5265 155.112 69.722C153.024 70.9188 151.382 72.5924 150.187 74.7451C148.991 76.8979 148.394 79.3456 148.394 82.0835C148.394 84.8238 148.991 87.2703 150.187 89.4231C151.382 91.5759 153.024 93.2506 155.112 94.4462C157.2 95.6442 159.571 96.2402 162.223 96.2402C164.832 96.2402 167.191 95.6442 169.301 94.4462ZM162.158 104.395C157.984 104.395 154.155 103.416 150.677 101.459C147.198 99.5018 144.435 96.8181 142.392 93.4023C140.346 89.989 139.325 86.2168 139.325 82.0835C139.325 77.9526 140.346 74.1804 142.392 70.7659C144.435 67.3526 147.198 64.6664 150.677 62.7099C154.155 60.7522 157.984 59.7734 162.158 59.7734C166.332 59.7734 170.172 60.7522 173.672 62.7099C177.172 64.6664 179.957 67.3526 182.022 70.7659C184.088 74.1804 185.121 77.9526 185.121 82.0835C185.121 86.2168 184.088 89.989 182.022 93.4023C179.957 96.8181 177.172 99.5018 173.672 101.459C170.172 103.416 166.332 104.395 162.158 104.395Z" fill="#F7F7FA"/>
<path fill-rule="evenodd" clip-rule="evenodd" d="M218.944 94.4462C221.052 93.2506 222.705 91.5759 223.902 89.4231C225.098 87.2703 225.695 84.8238 225.695 82.0835C225.695 79.389 225.098 76.9629 223.902 74.8101C222.705 72.6574 221.052 70.9718 218.944 69.7545C216.833 68.5373 214.475 67.9281 211.866 67.9281C209.213 67.9281 206.843 68.5265 204.756 69.722C202.667 70.9188 201.025 72.5924 199.829 74.7451C198.634 76.8979 198.037 79.3456 198.037 82.0835C198.037 84.8238 198.634 87.2703 199.829 89.4231C201.025 91.5759 202.667 93.2506 204.756 94.4462C206.843 95.6442 209.213 96.2402 211.866 96.2402C214.475 96.2402 216.833 95.6442 218.944 94.4462ZM211.801 104.395C207.626 104.395 203.798 103.416 200.319 101.459C196.84 99.5018 194.078 96.8181 192.035 93.4023C189.989 89.989 188.968 86.2168 188.968 82.0835C188.968 77.9526 189.989 74.1804 192.035 70.7659C194.078 67.3526 196.84 64.6664 200.319 62.7099C203.798 60.7522 207.626 59.7734 211.801 59.7734C215.976 59.7734 219.814 60.7522 223.315 62.7099C226.815 64.6664 229.599 67.3526 231.665 70.7659C233.73 74.1804 234.765 77.9526 234.765 82.0835C234.765 86.2168 233.73 89.989 231.665 93.4023C229.599 96.8181 226.815 99.5018 223.315 101.459C219.814 103.416 215.976 104.395 211.801 104.395Z" fill="#F7F7FA"/>
<path fill-rule="evenodd" clip-rule="evenodd" d="M248.789 80.6485H256.16C258.203 80.6485 259.802 80.0838 260.955 78.952C262.107 77.8227 262.683 76.3225 262.683 74.4515C262.683 72.625 262.097 71.1465 260.922 70.0147C259.748 68.8842 258.16 68.3195 256.16 68.3195H248.789V80.6485ZM266.403 103.611L255.248 88.4107H248.789V103.611H239.982V60.5561H256.16C259.161 60.5561 261.836 61.1328 264.184 62.285C266.533 63.4385 268.37 65.0687 269.697 67.1781C271.022 69.2863 271.687 71.7124 271.687 74.4515C271.687 77.1906 271.012 79.6275 269.664 81.7573C268.316 83.8884 266.469 85.5415 264.119 86.7166L276.316 103.611H266.403Z" fill="#F7F7FA"/>
<path fill-rule="evenodd" clip-rule="evenodd" d="M284.113 101.817C281.22 100.099 278.949 97.7849 277.297 94.8688L283.363 90.3032C284.755 92.2176 286.277 93.7394 287.93 94.8688C289.582 96.0018 291.583 96.5664 293.931 96.5664C295.844 96.5664 297.344 96.1426 298.432 95.2938C299.52 94.445 300.064 93.2819 300.064 91.8034C300.064 90.5428 299.66 89.576 298.856 88.9006C298.052 88.2263 296.627 87.4112 294.583 86.454L289.953 84.3663C286.646 82.8878 284.082 81.1709 282.253 79.2132C280.426 77.2555 279.515 74.8427 279.515 71.9711C279.515 69.5366 280.133 67.3959 281.374 65.5466C282.613 63.6984 284.319 62.2741 286.496 61.2736C288.668 60.273 291.104 59.7734 293.802 59.7734C297.105 59.7734 299.966 60.5126 302.379 61.9911C304.793 63.4697 306.674 65.4478 308.022 67.9281L302.02 72.5587C299.802 69.2549 297.063 67.6018 293.802 67.6018C292.277 67.6018 291.007 67.9594 289.985 68.677C288.962 69.3958 288.452 70.4288 288.452 71.7761C288.452 72.9078 288.833 73.8096 289.593 74.4839C290.353 75.1581 291.648 75.9082 293.474 76.7341L298.367 78.8869C301.977 80.4966 304.651 82.2689 306.392 84.2038C308.131 86.1398 309 88.5634 309 91.4783C309 94.0874 308.348 96.3702 307.043 98.3267C305.738 100.284 303.945 101.785 301.661 102.828C299.379 103.872 296.802 104.395 293.931 104.395C290.278 104.395 287.004 103.535 284.113 101.817Z" fill="#F7F7FA"/>
<path fill-rule="evenodd" clip-rule="evenodd" d="M97.9016 50.4585H307.513V30.4431H97.9016V50.4585Z" fill="#C81D1E"/>
<path fill-rule="evenodd" clip-rule="evenodd" d="M30.733 103.611H86.9141V60.5561H30.733V103.611Z" fill="#142E74"/>
<path fill-rule="evenodd" clip-rule="evenodd" d="M59.7182 32.2134C61.0727 33.6907 61.7493 35.6484 61.7493 38.0877V50.5684H56.2627V38.8607C56.2627 37.6675 55.9364 36.7188 55.2862 36.0144C54.6361 35.3101 53.7692 34.9573 52.6844 34.9573C51.6008 34.9573 50.7134 35.3101 50.0211 36.0144C49.3312 36.7188 48.9857 37.6266 48.9857 38.7379V50.5684H43.4966V38.8607C43.4966 37.6675 43.1716 36.7188 42.5214 36.0144C41.8712 35.3101 41.0032 34.9573 39.9196 34.9573C38.8083 34.9573 37.9149 35.3101 37.2358 36.0144C36.5592 36.7188 36.2197 37.6675 36.2197 38.8607V50.5684H30.733V30.4447H35.773V32.2339C36.4508 31.5295 37.2768 30.9805 38.2532 30.5868C39.2285 30.1943 40.2988 29.998 41.4643 29.998C44.1203 29.998 46.1117 30.96 47.441 32.884C48.226 31.9895 49.1952 31.2851 50.3474 30.7698C51.4996 30.2557 52.7662 29.998 54.1484 29.998C56.5059 29.998 58.3624 30.7361 59.7182 32.2134Z" fill="#F7F7FA"/>
<path fill-rule="evenodd" clip-rule="evenodd" d="M79.3517 30.4438V35.2815H77.8888C76.2345 35.2815 74.9209 35.7222 73.9457 36.6035C72.9692 37.4836 72.4816 38.7924 72.4816 40.5261V50.5675H66.9926V30.4438H72.0349V32.8422C72.7116 32.003 73.5243 31.3529 74.4742 30.8917C75.4218 30.4306 76.4524 30.2006 77.5637 30.2006C78.2404 30.2006 78.8363 30.2813 79.3517 30.4438Z" fill="#F7F7FA"/>
</svg>
