<svg width="330" height="134" viewBox="0 0 330 134" fill="none" xmlns="http://www.w3.org/2000/svg">
<path d="M85.6521 87.3809H78.4398C78.1963 87.3809 78 87.5529 78 87.7625V97.341C78 97.5687 78.1817 97.7274 78.4398 97.7274H79.8415C80.1045 97.7274 80.2813 97.5675 80.2813 97.341V89.3108H85.6533C85.9065 89.3108 86.0931 89.1546 86.0931 88.9316V87.7613C86.0919 87.5517 85.8932 87.3809 85.6521 87.3809ZM115.742 87.1628C113.684 87.1628 112.444 87.9951 111.994 88.3671C111.883 88.1151 111.733 87.748 111.676 87.6353C111.626 87.5262 111.516 87.3809 111.257 87.3809H110.173C110.013 87.3809 109.891 87.4766 109.85 87.622C109.836 87.6474 109.83 87.6777 109.83 87.7019V101.154C109.83 101.34 110.001 101.492 110.214 101.492H111.752C111.964 101.492 112.136 101.34 112.136 101.154V97.6693C112.525 97.765 113.452 97.9419 114.95 97.9419C118.894 97.9419 120.508 96.3669 120.508 92.5154C120.508 88.7111 119.127 87.1628 115.742 87.1628ZM114.957 96.0083C113.628 96.0083 112.504 95.829 112.136 95.7623V90.0305C112.378 89.8476 113.428 89.1364 115.095 89.1364C116.941 89.1364 118.006 89.7022 118.006 92.5953C118.006 95.2377 117.319 96.0083 114.957 96.0083ZM255.729 87.1628C254.16 87.1628 252.576 87.33 252.072 87.4257C251.844 87.4657 251.708 87.6159 251.708 87.8546V88.9983C251.708 89.3363 251.93 89.4235 252.132 89.3775C252.621 89.2769 254.145 89.0916 255.612 89.0916C258.057 89.0916 258.663 89.5289 258.667 91.3305C258.22 91.2857 257.018 91.1645 255.687 91.1645C252.1 91.1645 250.709 92.1168 250.709 94.5726C250.709 97.0344 251.899 97.9479 255.096 97.9479C257.084 97.9479 258.366 97.1447 258.8 96.8212C258.885 96.9932 259.02 97.2622 259.127 97.4767C259.207 97.639 259.355 97.7287 259.549 97.7287H260.634C260.833 97.7287 260.975 97.5893 260.975 97.3822V91.3996C260.975 87.874 258.97 87.1628 255.729 87.1628ZM258.667 95.2014C258.394 95.3831 257.296 96.0143 255.571 96.0143C253.486 96.0143 253.15 95.6618 253.15 94.5374C253.15 93.4422 253.436 92.9624 256.108 92.9624C257.284 92.9624 258.3 93.063 258.665 93.0993V95.2014H258.667ZM155.385 87.3809H153.65C153.478 87.3809 153.241 87.4184 153.134 87.7092C153.044 87.9563 151.083 93.3574 150.018 96.2772C149.104 93.6942 147.071 87.9151 146.996 87.7092C146.894 87.4184 146.653 87.3809 146.483 87.3809H144.711C144.596 87.3809 144.5 87.4317 144.439 87.5153C144.383 87.6074 144.378 87.7177 144.423 87.8291C144.528 88.0957 146.733 93.836 147.676 96.2857L148.087 97.3616C148.182 97.6136 148.358 97.7287 148.645 97.7287H149.493L149.371 98.0521C149.009 99.0153 148.81 99.2625 147.843 99.2625H147.523C147.302 99.2625 147.142 99.4442 147.142 99.7071V101.108C147.142 101.366 147.303 101.547 147.523 101.547H147.888C149.653 101.547 150.591 100.907 151.226 99.2576C151.226 99.2576 155.55 88.1357 155.67 87.8231C155.716 87.7116 155.707 87.5965 155.644 87.5153C155.592 87.4317 155.5 87.3809 155.385 87.3809ZM225.239 87.3809H216.018C215.816 87.3809 215.658 87.5323 215.658 87.7298V97.3822C215.658 97.5784 215.816 97.7287 216.018 97.7287H217.563C217.771 97.7287 217.939 97.5724 217.939 97.3822V89.2733H223.325V97.3822C223.325 97.5724 223.491 97.7287 223.708 97.7287H225.239C225.452 97.7287 225.601 97.5724 225.601 97.3822V87.7298C225.6 87.5323 225.451 87.3809 225.239 87.3809ZM189.731 87.3809H180.506C180.305 87.3809 180.15 87.5323 180.15 87.7298V97.3822C180.15 97.5724 180.305 97.7287 180.506 97.7287H182.05C182.261 97.7287 182.429 97.5724 182.429 97.3822V89.2733H187.808V97.3822C187.808 97.5724 187.982 97.7287 188.191 97.7287H189.731C189.943 97.7287 190.094 97.5784 190.094 97.3822V87.7298C190.094 87.5323 189.943 87.3809 189.731 87.3809Z" fill="#F7F7FA"/>
<path d="M86.7704 32C81.602 32 78.7148 34.8701 78.7148 40.0568V73.4251H106.328C108.634 73.4251 109.785 72.2717 109.785 69.9698V43.5109H131.654C133.949 43.506 135.093 42.3563 135.093 40.0616V32.0012H86.7704V32ZM152.621 43.5109H156.117V43.5157C157.857 43.5157 158.756 44.09 159.223 45.8322H159.233L162.608 58.1221H148.581L152.621 43.5109ZM145.449 32L132.795 73.4251H144.345L146.29 66.386H164.881L165.998 70.4423C166.727 72.6509 167.923 73.4251 170.077 73.4251H199.92L188.788 40.9376H188.784C186.378 33.9264 183.423 32 174.218 32H145.449ZM204.62 32V40.0713C204.627 42.3587 205.777 43.5097 208.071 43.5097H227.398C228.801 43.5097 229.935 44.4317 229.935 46.0406C229.935 47.6507 228.801 48.5763 227.398 48.5763H213.826V56.8439H227.398C228.801 56.8439 229.935 57.772 229.935 59.3821C229.935 60.991 228.801 61.9179 227.398 61.9179H204.621V69.9771C204.621 72.2717 205.771 73.4251 208.073 73.4251H251.795C257.552 73.4251 261 69.9734 261 65.3684V60.8457C261 55.7051 257.326 53.1681 254.074 52.6835V51.7009C257.326 51.2211 261 48.7048 261 43.5666V40.058C261 34.8798 258.132 32.0012 252.946 32.0012H204.62V32Z" fill="#F7F7FA"/>
</svg>
