<svg width="331" height="134" viewBox="0 0 331 134" fill="none" xmlns="http://www.w3.org/2000/svg">
<path d="M142.801 44.2251L147.402 36.3116H148.997V47.047H147.463V38.8881L142.862 46.9856H141.268V36.3116H142.801V44.2251Z" fill="#F7F7FA"/>
<path d="M149.12 47.1074H147.402V39.2553L142.985 47.1074H141.145V36.2494H142.863V43.9175L147.279 36.2494H149.12V47.1074ZM147.586 46.9234H148.936V36.4334H147.402L142.74 44.6536V36.4334H141.39V46.9234H142.924L147.586 38.5805V46.9234Z" fill="#F7F7FA"/>
<path d="M157.769 36.3116H159.303V47.047H157.769V42.3234H153.659V46.9856H152.064V36.3116H153.659V40.7898H157.769V36.3116Z" fill="#F7F7FA"/>
<path d="M159.426 47.1074H157.708V42.4452H153.782V47.1074H152.064V36.2494H153.782V40.8502H157.708V36.2494H159.426V47.1074ZM157.892 46.9234H159.242V36.4334H157.892V41.0343H153.598V36.4334H152.248V46.9234H153.598V42.2612H157.892V46.9234Z" fill="#F7F7FA"/>
<path d="M167.339 36.0064C168.934 36.0064 170.591 36.7425 171.633 38.0921L170.591 39.135C169.854 38.0921 168.873 37.54 167.462 37.54C164.947 37.54 163.475 39.3804 163.475 41.7728C163.475 44.1652 165.008 46.0056 167.585 46.0056C168.996 46.0056 169.977 45.4535 170.713 44.4106L171.756 45.4535C170.713 46.8031 169.057 47.5392 167.462 47.5392C164.211 47.5392 161.941 45.0241 161.941 41.8955C161.818 38.5215 164.211 36.0064 167.339 36.0064Z" fill="#F7F7FA"/>
<path d="M167.339 47.4165C164.088 47.4165 161.695 44.9014 161.695 41.7115C161.695 38.5215 164.211 36.0064 167.339 36.0064C169.057 36.0064 170.713 36.7425 171.633 38.0921L171.756 38.2148L170.59 39.2577L170.468 39.135C169.732 38.0921 168.627 37.54 167.4 37.54C165.131 37.54 163.474 39.2577 163.474 41.6501C163.474 44.1652 165.069 45.7602 167.462 45.7602C168.811 45.7602 169.732 45.2081 170.529 44.1652L170.652 44.0426L171.817 45.2081L171.695 45.3308C170.713 46.619 169.057 47.4165 167.339 47.4165ZM167.339 36.1291C164.272 36.1291 161.879 38.6442 161.879 41.6501C161.879 44.7787 164.272 47.1711 167.339 47.1711C168.934 47.1711 170.468 46.435 171.449 45.2694L170.59 44.4106C169.854 45.4535 168.75 46.0056 167.462 46.0056C164.947 46.0056 163.229 44.2879 163.229 41.7115C163.229 39.1963 164.947 37.4173 167.339 37.4173C168.689 37.4173 169.732 37.9694 170.468 39.0123L171.326 38.1535C170.406 36.8039 168.873 36.1291 167.339 36.1291Z" fill="#F7F7FA"/>
<path d="M172.983 36.3116H180.467V37.7226H177.523V46.9856H175.989V37.7839H173.045V36.3116H172.983Z" fill="#F7F7FA"/>
<path d="M177.584 47.1074H175.866V37.8444H172.921V36.2494H180.59V37.8444H177.645V47.1074H177.584ZM176.05 46.9234H177.4V37.6603H180.344V36.4334H173.105V37.6603H176.05V46.9234Z" fill="#F7F7FA"/>
<path d="M184.086 44.2251L188.564 36.3116H190.282V47.047H188.748V38.8881L184.147 46.9856H182.552V36.3116H184.086V44.2251Z" fill="#F7F7FA"/>
<path d="M190.405 47.1074H188.687V39.2553L184.27 47.1074H182.43V36.2494H184.148V43.9175L188.564 36.2494H190.405V47.1074ZM188.871 46.9234H190.221V36.4334H188.687L184.025 44.6536V36.4334H182.675V46.9234H184.209L188.871 38.5805V46.9234Z" fill="#F7F7FA"/>
<path d="M192.368 36.3116H199.852V37.7226H196.907V46.9856H195.374V37.7839H192.429V36.3116H192.368Z" fill="#F7F7FA"/>
<path d="M196.969 47.1074H195.252V37.8444H192.307V36.2494H199.975V37.8444H196.969V47.1074ZM195.436 46.9234H196.785V37.6603H199.73V36.4334H192.491V37.6603H195.436V46.9234Z" fill="#F7F7FA"/>
<path d="M202.735 36.3116L204.943 41.2806L207.152 36.3116H208.869L204.023 47.047H202.428L204.146 43.1209L201.079 36.3116H202.735Z" fill="#F7F7FA"/>
<path d="M204.023 47.1083H202.183L202.306 46.9856L204.023 43.1822L200.956 36.3116H202.858V36.4343L204.944 41.2192L207.152 36.373H209.054L208.931 36.4957L204.023 47.1083ZM202.428 46.9243H203.839L208.624 36.4343H207.213L204.944 41.5873L202.735 36.4343H201.263L204.207 43.1209L202.428 46.9243Z" fill="#F7F7FA"/>
<path d="M209.667 36.3116H217.151V37.7226H214.206V46.9856H212.673V37.7839H209.728V36.3116H209.667Z" fill="#F7F7FA"/>
<path d="M214.267 47.1074H212.55V37.8444H209.605V36.2494H217.273V37.8444H214.329V47.1074H214.267ZM212.734 46.9234H214.083V37.6603H217.028V36.4334H209.789V37.6603H212.734V46.9234Z" fill="#F7F7FA"/>
<path d="M223.469 36.3116H227.396C229.297 36.3116 230.769 37.5385 230.769 39.3789C230.769 41.2192 229.359 42.4461 227.396 42.4461H225.003V47.047H223.469V36.3116ZM227.457 40.9738C228.316 40.9738 229.175 40.4831 229.175 39.3789C229.175 38.2133 228.438 37.7839 227.457 37.7839H225.064V41.0352H227.457V40.9738Z" fill="#F7F7FA"/>
<path d="M225.064 47.1074H223.346V36.2494H227.334C229.358 36.2494 230.769 37.599 230.769 39.378C230.769 41.2796 229.358 42.5065 227.334 42.5065H225.064V47.1074ZM223.53 46.9234H224.88V42.3225H227.395C229.297 42.3225 230.646 41.0956 230.646 39.378C230.646 37.6603 229.297 36.4334 227.395 36.4334H223.592V46.9234H223.53ZM227.457 41.0956H224.88V37.6603H227.395C228.254 37.6603 229.236 38.2124 229.236 39.378C229.297 40.5435 228.315 41.0956 227.457 41.0956ZM225.064 40.9116H227.334C228.07 40.9116 228.929 40.5435 228.929 39.378C228.929 38.2124 228.07 37.8444 227.334 37.8444H225.064V40.9116Z" fill="#F7F7FA"/>
<path d="M234.572 36.3116H236.167L239.787 47.047H238.253L237.272 44.2864H233.284L232.303 47.047H230.769L234.572 36.3116ZM233.775 42.7528H236.719L235.186 38.336L233.775 42.7528Z" fill="#F7F7FA"/>
<path d="M239.91 47.1087H238.192V46.986L237.21 44.2255H233.407L232.425 46.986H230.708V46.8633L234.45 36.0667H236.167V36.1893L239.91 47.1087ZM238.376 46.9246H239.725L236.106 36.4347H234.695L231.076 46.9246H232.425L233.407 44.1641H237.517V44.2868L238.376 46.9246ZM236.965 42.8146H233.714L235.309 38.0297L236.965 42.8146ZM233.959 42.6305H236.658L235.309 38.6431L233.959 42.6305Z" fill="#F7F7FA"/>
<path d="M243.345 40.7906H244.94C245.983 40.7906 246.842 40.1158 246.842 39.0729C246.842 37.9074 245.799 37.3553 244.817 37.3553C243.836 37.3553 242.793 37.846 242.793 38.7662H241.259C241.259 37.1712 242.793 35.8217 244.817 35.8217C246.658 35.8217 248.375 37.0485 248.375 38.8889C248.375 39.9317 247.823 40.7906 247.026 41.2813C248.007 41.7721 248.743 42.6309 248.743 43.8578C248.743 45.7595 247.148 47.1091 244.94 47.1091C242.916 47.1091 241.382 45.9435 241.137 44.1645L242.67 43.6738C242.793 44.8393 243.713 45.5754 244.94 45.5754C246.106 45.5754 247.21 45.0233 247.21 43.7351C247.21 42.4469 246.167 42.0175 245.124 42.0175H243.284V40.7906H243.345Z" fill="#F7F7FA"/>
<path d="M244.94 47.4157C242.916 47.4157 241.321 46.1888 241.014 44.3485V44.2258L242.732 43.735V43.8577C242.854 44.9006 243.713 45.698 244.94 45.698C245.983 45.698 247.149 45.1459 247.149 43.9804C247.149 42.5695 245.738 42.3854 245.124 42.3854H243.223V40.7905H244.94C245.799 40.7905 246.781 40.2384 246.781 39.1955C246.781 38.03 245.799 37.6006 244.879 37.6006C243.897 37.6006 242.977 37.9686 242.977 38.9501V39.0728H241.259V38.9501C241.259 37.2325 242.854 35.8829 244.879 35.8829C246.719 35.8829 248.498 37.0485 248.498 39.0115C248.498 39.993 248.007 40.8518 247.271 41.4039C248.314 41.956 248.866 42.8148 248.866 43.9804C248.866 46.0048 247.149 47.4157 244.94 47.4157ZM241.259 44.4711C241.566 46.0661 243.1 47.2317 245.001 47.2317C247.21 47.2317 248.744 46.0048 248.744 44.1031C248.744 42.6922 247.885 41.8947 247.149 41.588L246.965 41.4653L247.087 41.3426C247.946 40.7905 248.437 39.9316 248.437 39.0728C248.437 37.1711 246.719 36.1283 245.001 36.1283C243.1 36.1283 241.628 37.3552 241.566 38.8888H242.916C243.038 37.8459 243.959 37.4779 245.001 37.4779C245.983 37.4779 247.087 38.03 247.087 39.3182C247.087 40.3611 246.228 41.1585 245.063 41.1585H243.529V42.3854H245.247C246.658 42.3854 247.455 43.0602 247.455 44.2258C247.455 45.5754 246.29 46.1275 245.063 46.1275C243.713 46.1275 242.854 45.3913 242.67 44.2258L241.259 44.4711Z" fill="#F7F7FA"/>
<path d="M251.381 36.3116H255.185C257.086 36.3116 258.559 37.4772 258.559 39.2562C258.559 40.2377 258.068 41.0965 257.209 41.5259C258.068 42.0167 258.62 42.8755 258.62 44.0411C258.62 45.8814 257.209 47.1083 255.246 47.1083H251.32V36.3116H251.381ZM255.307 40.7898C256.166 40.7898 257.025 40.299 257.025 39.2562C257.025 38.2133 256.166 37.7226 255.307 37.7226H252.915V40.7898H255.307ZM255.491 45.5747C256.35 45.5747 257.209 45.0226 257.209 43.9797C257.209 42.8142 256.35 42.3848 255.491 42.3848H252.976V45.636H255.491V45.5747Z" fill="#F7F7FA"/>
<path d="M255.369 47.1074H251.381V36.2494H255.307C257.332 36.2494 258.743 37.4763 258.743 39.3166C258.743 40.2981 258.252 41.0343 257.516 41.5864C258.375 42.0771 258.865 42.9973 258.865 44.1015C258.804 45.8805 257.393 47.1074 255.369 47.1074ZM251.443 46.9234H255.246C257.148 46.9234 258.497 45.6965 258.497 43.9788C258.497 42.936 258.007 42.0771 257.086 41.5864L256.902 41.4637L257.086 41.341C257.822 40.8502 258.313 39.9914 258.313 39.1326C258.313 37.5376 256.964 36.2494 255.062 36.2494H251.32V46.862H251.443V46.9234ZM255.491 45.6965H252.915V42.2612H255.491C256.35 42.2612 257.332 42.7519 257.332 43.9788C257.27 45.0217 256.35 45.6965 255.491 45.6965ZM252.976 45.5124H255.369C256.105 45.5124 256.964 44.9603 256.964 43.9788C256.964 42.5679 255.737 42.4452 255.369 42.4452H252.976V45.5124ZM255.307 40.9116H252.792V37.6603H255.307C256.166 37.6603 257.148 38.0284 257.148 39.2553C257.209 40.5435 256.166 40.9116 255.307 40.9116ZM252.976 40.7275H255.246C255.982 40.7275 256.841 40.3595 256.841 39.3166C256.841 38.2738 255.982 37.9057 255.246 37.9057H252.976V40.7275Z" fill="#F7F7FA"/>
<path d="M262.914 44.2251L267.515 36.3116H269.11V47.047H267.576V38.8881L263.098 46.9856H261.38V36.3116H262.914V44.2251Z" fill="#F7F7FA"/>
<path d="M269.233 47.1074H267.515V39.2553L263.099 47.1074H261.258V36.2494H262.976V43.9175L267.393 36.2494H269.233V47.1074ZM267.699 46.9234H269.049V36.4334H267.515L262.853 44.6536V36.4334H261.504V46.9234H263.037L267.699 38.5805V46.9234Z" fill="#F7F7FA"/>
<path d="M271.257 36.3116H278.741V37.7226H275.797V46.9856H274.263V37.7839H271.319V36.3116H271.257Z" fill="#F7F7FA"/>
<path d="M275.858 47.1074H274.141V37.8444H271.196V36.2494H278.864V37.8444H275.92V47.1074H275.858ZM274.325 46.9234H275.674V37.6603H278.619V36.4334H271.38V37.6603H274.325V46.9234Z" fill="#F7F7FA"/>
<path d="M282.361 44.2251L286.839 36.3116H288.556V47.047H287.023V38.8881L282.422 46.9856H280.827V36.3116H282.361V44.2251Z" fill="#F7F7FA"/>
<path d="M288.679 47.1074H286.961V39.2553L282.544 47.1074H280.704V36.2494H282.422V43.9175L286.839 36.2494H288.679V47.1074ZM287.145 46.9234H288.495V36.4334H286.961L282.238 44.6536V36.4334H280.888V46.9234H282.422L287.145 38.6418V46.9234Z" fill="#F7F7FA"/>
<path d="M291.133 39.2564C291.133 37.3547 292.666 36.1891 294.507 36.1891H298.31V46.9245H296.776V42.3236H296.47L292.728 46.9858H291.01V46.6791L294.629 42.2623C292.789 42.3236 291.133 41.2194 291.133 39.2564ZM296.654 40.79V37.7228H294.261C293.402 37.7228 292.544 38.2749 292.544 39.2564C292.544 40.2379 293.28 40.79 294.261 40.79H296.654Z" fill="#F7F7FA"/>
<path d="M298.371 47.1083H296.531V42.4461H296.347L292.605 47.1083H290.703V46.7402L294.261 42.4461C292.175 42.3234 290.887 40.8511 290.887 39.3789C290.887 37.8453 292.053 36.3116 294.322 36.3116H298.249V47.1083H298.371ZM296.776 46.9243H298.126V36.4343H294.384C292.85 36.4343 291.133 37.4158 291.133 39.3789C291.133 40.2377 291.501 40.9738 292.175 41.4646C292.728 41.9553 293.586 42.2007 294.445 42.2007H294.629L290.887 46.6789V46.8629H292.482L296.224 42.2007H296.715V46.9243H296.776ZM296.776 40.9125H294.261C293.402 40.9125 292.421 40.3604 292.421 39.3175C292.421 38.2747 293.402 37.7226 294.261 37.7226H296.776V40.9125ZM294.384 37.8453C293.648 37.8453 292.789 38.336 292.789 39.2562C292.789 40.2377 293.648 40.6671 294.384 40.6671H296.654V37.7839H294.384V37.8453Z" fill="#F7F7FA"/>
<path d="M141.268 53.918H147.954V55.329H142.801V64.592H141.268V53.918Z" fill="#F7F7FA"/>
<path d="M142.863 64.7149H141.145V53.7956H148.138V55.3905H142.863V64.7149ZM141.329 64.5309H142.679V55.2678H147.954V54.0409H141.329V64.5309Z" fill="#F7F7FA"/>
<path d="M154.273 53.6108C157.402 53.6108 159.917 56.1259 159.917 59.2545C159.917 62.3831 157.402 64.8982 154.273 64.8982C151.145 64.8982 148.629 62.3831 148.629 59.2545C148.629 56.1259 151.083 53.6108 154.273 53.6108ZM154.273 63.4873C156.666 63.4873 158.383 61.7696 158.383 59.2545C158.383 56.7394 156.666 55.0217 154.273 55.0217C151.881 55.0217 150.163 56.7394 150.163 59.2545C150.163 61.647 151.758 63.4873 154.273 63.4873Z" fill="#F7F7FA"/>
<path d="M154.273 65.0209C151.144 65.0209 148.568 62.4444 148.568 59.3159C148.568 56.1873 151.144 53.6108 154.273 53.6108C157.401 53.6108 159.978 56.1873 159.978 59.3159C159.978 62.4444 157.401 65.0209 154.273 65.0209ZM154.273 53.7335C151.205 53.7335 148.752 56.2486 148.752 59.2545C148.752 62.2604 151.267 64.7755 154.273 64.7755C157.279 64.7755 159.794 62.2604 159.794 59.2545C159.794 56.2486 157.34 53.7335 154.273 53.7335ZM154.273 63.5486C151.758 63.5486 150.04 61.7083 150.04 59.2545C150.04 56.8007 151.88 54.9604 154.273 54.9604C156.788 54.9604 158.505 56.678 158.505 59.2545C158.444 61.7696 156.665 63.5486 154.273 63.5486ZM154.273 55.1444C151.88 55.1444 150.285 56.8621 150.285 59.2545C150.285 61.647 152.003 63.3646 154.273 63.3646C156.665 63.3646 158.26 61.647 158.26 59.2545C158.26 56.8621 156.542 55.1444 154.273 55.1444Z" fill="#F7F7FA"/>
<path d="M162.37 53.918H166.296C168.198 53.918 169.67 55.1449 169.67 56.9853C169.67 58.8256 168.259 60.0525 166.296 60.0525H163.904V64.6533H162.37V53.918ZM166.419 58.5802C167.278 58.5802 168.137 58.0895 168.137 56.9853C168.137 55.8811 167.4 55.3903 166.419 55.3903H164.026V58.6416H166.419V58.5802Z" fill="#F7F7FA"/>
<path d="M164.027 64.7149H162.309V53.7956H166.297C168.321 53.7956 169.732 55.1451 169.732 56.9241C169.732 58.8258 168.321 60.0527 166.297 60.0527H164.027V64.7149ZM162.493 64.5309H163.843V59.93H166.358C168.26 59.93 169.609 58.7031 169.609 56.9855C169.609 55.2678 168.198 53.9796 166.297 53.9796H162.493V64.5309ZM166.419 58.7031H163.904V55.2678H166.419C167.278 55.2678 168.26 55.8199 168.26 56.9855C168.137 58.0897 167.278 58.7031 166.419 58.7031ZM164.027 58.5191H166.297C167.033 58.5191 167.892 58.151 167.892 56.9855C167.892 55.8199 167.033 55.4519 166.297 55.4519H164.027V58.5191Z" fill="#F7F7FA"/>
<path d="M176.725 53.6108C179.853 53.6108 182.368 56.1259 182.368 59.2545C182.368 62.3831 179.853 64.8982 176.725 64.8982C173.596 64.8982 171.081 62.3831 171.081 59.2545C171.081 56.1259 173.535 53.6108 176.725 53.6108ZM176.725 63.4873C179.117 63.4873 180.835 61.7696 180.835 59.2545C180.835 56.7394 179.117 55.0217 176.725 55.0217C174.332 55.0217 172.615 56.7394 172.615 59.2545C172.615 61.647 174.332 63.4873 176.725 63.4873Z" fill="#F7F7FA"/>
<path d="M176.725 65.0209C173.596 65.0209 171.02 62.4444 171.02 59.3159C171.02 56.1873 173.596 53.6108 176.725 53.6108C179.853 53.6108 182.43 56.1873 182.43 59.3159C182.43 62.4444 179.853 65.0209 176.725 65.0209ZM176.725 53.7335C173.658 53.7335 171.204 56.2486 171.204 59.2545C171.204 62.2604 173.719 64.7755 176.725 64.7755C179.792 64.7755 182.246 62.2604 182.246 59.2545C182.246 56.2486 179.792 53.7335 176.725 53.7335ZM176.725 63.5486C174.21 63.5486 172.492 61.7083 172.492 59.2545C172.492 56.8007 174.332 54.9604 176.725 54.9604C179.24 54.9604 180.958 56.678 180.958 59.2545C180.896 61.7696 179.117 63.5486 176.725 63.5486ZM176.725 55.1444C174.332 55.1444 172.737 56.8621 172.737 59.2545C172.737 61.647 174.455 63.3646 176.725 63.3646C179.117 63.3646 180.712 61.647 180.712 59.2545C180.712 56.8621 179.117 55.1444 176.725 55.1444Z" fill="#F7F7FA"/>
<path d="M185.251 53.918H192.061V63.1811H193.226V66.8004H191.693V64.592H184.883V66.8004H183.35V63.1811H184.025C184.761 63.1811 185.251 62.6903 185.251 61.8315V53.918ZM190.466 63.1811V55.4516H186.662V61.7701C186.662 62.3222 186.478 62.813 186.11 63.1811H190.466Z" fill="#F7F7FA"/>
<path d="M193.227 66.9233H191.509V64.7149H184.884V66.9233H183.167V63.1199H183.903C184.577 63.1199 185.068 62.6292 185.068 61.8931V53.7956H192.061V63.0586H193.227V66.9233ZM191.693 66.7393H193.043V63.304H191.877V53.9796H185.314V61.8317C185.314 62.6905 184.823 63.1813 183.964 63.2426H183.412V66.6779H184.761V64.4695H191.755V66.7393H191.693ZM190.589 63.304H185.988L186.172 63.1199C186.54 62.7519 186.724 62.2611 186.724 61.709V55.2678H190.651V63.304H190.589ZM186.356 63.0586H190.344V55.5132H186.786V61.709C186.724 62.1384 186.663 62.6292 186.356 63.0586Z" fill="#F7F7FA"/>
<path d="M199.913 53.6108C201.508 53.6108 203.165 54.3469 204.207 55.6965L203.165 56.7394C202.428 55.6965 201.447 55.1444 200.036 55.1444C197.521 55.1444 196.049 56.9848 196.049 59.3772C196.049 61.7696 197.582 63.61 200.159 63.61C201.57 63.61 202.551 63.0579 203.287 62.015L204.33 63.0579C203.287 64.4075 201.631 65.1436 200.036 65.1436C196.785 65.1436 194.515 62.6285 194.515 59.4999C194.515 56.1259 196.785 53.6108 199.913 53.6108Z" fill="#F7F7FA"/>
<path d="M200.036 65.0209C196.784 65.0209 194.392 62.5058 194.392 59.3159C194.392 56.1259 196.907 53.6108 200.036 53.6108C201.753 53.6108 203.41 54.3469 204.33 55.6965L204.453 55.8192L203.287 56.9848L203.164 56.8621C202.428 55.8192 201.324 55.2671 200.097 55.2671C197.827 55.2671 196.171 56.9848 196.171 59.3772C196.171 61.8923 197.766 63.4873 200.158 63.4873C201.508 63.4873 202.428 62.9352 203.226 61.8923L203.348 61.7696L204.514 62.9352L204.391 63.0579C203.41 64.2234 201.753 65.0209 200.036 65.0209ZM199.913 53.7335C196.846 53.7335 194.453 56.2486 194.453 59.2545C194.453 62.3831 196.846 64.7755 199.913 64.7755C201.508 64.7755 203.042 64.0394 204.023 62.8738L203.164 62.015C202.428 63.0579 201.324 63.61 200.036 63.61C197.521 63.61 195.803 61.8923 195.803 59.3159C195.803 56.8007 197.521 55.0217 199.913 55.0217C201.263 55.0217 202.305 55.5738 203.042 56.6167L203.9 55.7579C203.103 54.4083 201.569 53.7335 199.913 53.7335Z" fill="#F7F7FA"/>
<path d="M214.022 53.918L209.421 59.1937L214.206 64.6533H212.182L208.256 60.0525V64.6533H206.661V53.918H208.256V58.3348L212.182 53.918H214.022Z" fill="#F7F7FA"/>
<path d="M214.39 64.7149H212.182L208.378 60.2981V64.7149H206.661V53.7956H208.378V58.0283L212.182 53.7956H214.268L209.605 59.1325L214.39 64.7149ZM212.304 64.5309H214.022L209.36 59.1939L209.483 59.0712L213.961 53.9183H212.304L208.194 58.5191V53.9183H206.783V64.4082H208.133V59.746L208.317 59.93L212.304 64.5309Z" fill="#F7F7FA"/>
<path d="M220.402 53.6108C223.531 53.6108 226.046 56.1259 226.046 59.2545C226.046 62.3831 223.531 64.8982 220.402 64.8982C217.274 64.8982 214.759 62.3831 214.759 59.2545C214.759 56.1259 217.274 53.6108 220.402 53.6108ZM220.402 63.4873C222.795 63.4873 224.512 61.7696 224.512 59.2545C224.512 56.7394 222.795 55.0217 220.402 55.0217C218.01 55.0217 216.292 56.7394 216.292 59.2545C216.292 61.647 218.01 63.4873 220.402 63.4873Z" fill="#F7F7FA"/>
<path d="M220.402 65.0209C217.274 65.0209 214.697 62.4444 214.697 59.3159C214.697 56.1873 217.274 53.6108 220.402 53.6108C223.531 53.6108 226.107 56.1873 226.107 59.3159C226.107 62.4444 223.531 65.0209 220.402 65.0209ZM220.402 53.7335C217.335 53.7335 214.881 56.2486 214.881 59.2545C214.881 62.2604 217.397 64.7755 220.402 64.7755C223.47 64.7755 225.923 62.2604 225.923 59.2545C225.923 56.2486 223.47 53.7335 220.402 53.7335ZM220.402 63.5486C217.887 63.5486 216.17 61.7083 216.17 59.2545C216.17 56.8007 218.01 54.9604 220.402 54.9604C222.918 54.9604 224.635 56.678 224.635 59.2545C224.635 61.7696 222.856 63.5486 220.402 63.5486ZM220.402 55.1444C218.01 55.1444 216.415 56.8621 216.415 59.2545C216.415 61.647 218.133 63.3646 220.402 63.3646C222.795 63.3646 224.39 61.647 224.39 59.2545C224.39 56.8621 222.795 55.1444 220.402 55.1444Z" fill="#F7F7FA"/>
<path d="M230.033 61.8309L234.634 53.9175H236.352V64.6528H234.818V56.4939L230.218 64.5914H228.5V53.9175H230.033V61.8309ZM230.524 51.2183V51.0956H231.751C231.751 51.4023 231.935 51.8317 232.487 51.8317C233.039 51.8317 233.223 51.4637 233.223 51.0956H234.45V51.2183C234.45 52.0771 233.776 53.0586 232.426 53.0586C231.076 53.0586 230.524 52.0771 230.524 51.2183Z" fill="#F7F7FA"/>
<path d="M236.475 64.7142H234.757V56.8621L230.34 64.7142H228.5V53.7949H230.218V61.4629L234.634 53.7949H236.475V64.7142ZM234.941 64.5302H236.291V53.9789H234.757L230.095 62.1991V53.9789H228.745V64.4688H230.279L234.941 56.126V64.5302ZM232.549 53.1201C231.199 53.1201 230.463 52.1386 230.463 51.2184V51.0344H231.874V51.1571C231.874 51.4638 231.997 51.8318 232.549 51.8318C233.039 51.8318 233.223 51.4638 233.223 51.1571V51.0344H233.346H234.696V51.2184C234.634 52.1999 233.898 53.1201 232.549 53.1201ZM230.647 51.2184C230.647 52.0772 231.322 52.936 232.549 52.936C233.776 52.936 234.45 52.0772 234.45 51.2184H233.407C233.407 51.5865 233.101 51.9545 232.549 51.9545C232.058 51.9545 231.812 51.5865 231.69 51.2184H230.647Z" fill="#F7F7FA"/>
<path d="M248.621 53.6108C250.216 53.6108 251.872 54.3469 252.915 55.6965L251.872 56.7394C251.136 55.6965 250.155 55.1444 248.744 55.1444C246.229 55.1444 244.756 56.9848 244.756 59.3772C244.756 61.7696 246.29 63.61 248.866 63.61C250.277 63.61 251.259 63.0579 251.995 62.015L253.038 63.0579C251.995 64.4075 250.339 65.1436 248.744 65.1436C245.493 65.1436 243.223 62.6285 243.223 59.4999C243.161 56.1259 245.431 53.6108 248.621 53.6108Z" fill="#F7F7FA"/>
<path d="M248.682 65.0209C245.431 65.0209 243.038 62.5058 243.038 59.3159C243.038 56.1259 245.553 53.6108 248.682 53.6108C250.4 53.6108 252.056 54.3469 252.976 55.6965L253.099 55.8192L251.933 56.9848L251.811 56.8621C251.074 55.8192 249.97 55.2671 248.743 55.2671C246.474 55.2671 244.817 56.9848 244.817 59.3772C244.817 61.8923 246.412 63.4873 248.805 63.4873C250.154 63.4873 251.074 62.9352 251.872 61.8923L251.995 61.7696L253.16 62.9352L253.037 63.0579C252.056 64.2234 250.4 65.0209 248.682 65.0209ZM248.621 53.7335C245.553 53.7335 243.161 56.2486 243.161 59.2545C243.161 62.3831 245.553 64.7755 248.621 64.7755C250.216 64.7755 251.749 64.0394 252.731 62.8738L251.872 62.015C251.136 63.0579 250.032 63.61 248.743 63.61C246.228 63.61 244.511 61.8923 244.511 59.3159C244.511 56.8007 246.228 55.0217 248.621 55.0217C249.97 55.0217 251.013 55.5738 251.749 56.6167L252.608 55.7579C251.749 54.4083 250.216 53.7335 248.621 53.7335Z" fill="#F7F7FA"/>
<path d="M255.308 53.918H259.234C261.135 53.918 262.608 55.1449 262.608 56.9853C262.608 58.8256 261.197 60.0525 259.234 60.0525H256.841V64.6533H255.308V53.918ZM259.295 58.5802C260.154 58.5802 261.013 58.0895 261.013 56.9853C261.013 55.8811 260.277 55.3903 259.295 55.3903H256.903V58.6416H259.295V58.5802Z" fill="#F7F7FA"/>
<path d="M256.902 64.7149H255.185V53.7956H259.172C261.196 53.7956 262.607 55.1451 262.607 56.9241C262.607 58.8258 261.196 60.0527 259.172 60.0527H256.902V64.7149ZM255.369 64.5309H256.718V59.93H259.233C261.135 59.93 262.485 58.7031 262.485 56.9855C262.485 55.2678 261.135 54.0409 259.233 54.0409H255.43V64.5309H255.369ZM259.295 58.7031H256.78V55.2678H259.295C260.153 55.2678 261.135 55.8199 261.135 56.9855C261.012 58.0897 260.153 58.7031 259.295 58.7031ZM256.902 58.5191H259.172C259.908 58.5191 260.767 58.151 260.767 56.9855C260.767 55.8199 259.908 55.4519 259.172 55.4519H256.902V58.5191Z" fill="#F7F7FA"/>
<path d="M264.632 53.918H271.134V55.329H266.288V58.3962H270.95V59.9298H266.288V63.1811H271.134V64.592H264.632V53.918Z" fill="#F7F7FA"/>
<path d="M271.257 64.7149H264.57V53.7956H271.257V55.3905H266.411V58.2737H271.195V59.8687H266.411V62.9359H271.257V64.7149ZM264.754 64.5309H271.073V63.304H266.226V59.8687H271.011V58.6418H266.226V55.3905H271.073V54.1636H264.754V64.5309Z" fill="#F7F7FA"/>
<path d="M274.815 53.918H281.624V63.1811H282.79V66.8004H281.256V64.592H274.447V66.8004H272.914V63.1811H273.588C274.324 63.1811 274.815 62.6903 274.815 61.8315V53.918ZM280.029 63.1811V55.4516H276.287V61.7701C276.287 62.3222 276.103 62.813 275.735 63.1811H280.029Z" fill="#F7F7FA"/>
<path d="M282.79 66.9233H281.072V64.7149H274.569V66.9233H272.852V63.1199H273.588C274.263 63.1199 274.753 62.6292 274.753 61.8931V53.7956H281.747V63.0586H282.912V66.862H282.79V66.9233ZM281.317 66.7393H282.667V63.304H281.501V53.9796H274.876V61.8317C274.876 62.6905 274.385 63.1813 273.527 63.2426H272.974V66.6779H274.324V64.4695H281.317V66.7393ZM280.152 63.304H275.551L275.735 63.1199C276.103 62.7519 276.287 62.2611 276.287 61.709V55.2678H280.213V63.304H280.152ZM275.919 63.0586H279.906V55.5132H276.348V61.709C276.41 62.1384 276.226 62.6292 275.919 63.0586Z" fill="#F7F7FA"/>
<path d="M284.937 53.918H286.47V58.5189H289.17C291.071 58.5189 292.543 59.7458 292.543 61.5861C292.543 63.4264 291.133 64.6533 289.17 64.6533H284.937V53.918ZM289.231 63.1811C290.09 63.1811 290.949 62.6903 290.949 61.5861C290.949 60.4819 290.212 59.9911 289.231 59.9911H286.532V63.1811H289.231ZM293.402 63.1811H293.709V55.4516H293.402V53.9794H295.488V55.3903H295.181V63.1811H295.488V64.592H293.402V63.1811Z" fill="#F7F7FA"/>
<path d="M295.61 64.7149H293.341V63.1199H293.647V55.5132H293.341V53.7956H295.61V55.3905H295.304V62.9359H295.61V64.7149ZM293.525 64.5309H295.426V63.304H295.12V55.3292H295.426V54.1023H293.525V55.3292H293.831V63.2426H293.525V64.5309ZM289.108 64.7149H284.814V53.7956H286.531V58.3964H289.108C291.132 58.3964 292.543 59.746 292.543 61.525C292.543 63.3653 291.132 64.7149 289.108 64.7149ZM284.998 64.5309H289.108C291.01 64.5309 292.359 63.304 292.359 61.5863C292.359 59.8687 291.01 58.6418 289.108 58.6418H286.347V53.9796H284.998V64.5309ZM289.231 63.304H286.47V59.8687H289.231C290.089 59.8687 291.071 60.4208 291.071 61.5863C291.01 62.6905 290.089 63.304 289.231 63.304ZM286.654 63.0586H289.231C289.967 63.0586 290.826 62.6905 290.826 61.525C290.826 60.3594 289.967 59.9914 289.231 59.9914H286.654V63.0586Z" fill="#F7F7FA"/>
<path d="M146.911 71.5234H148.445V82.1974H146.911V77.5352H142.801V82.1974H141.268V71.5234H142.801V76.0016H146.911V71.5234Z" fill="#F7F7FA"/>
<path d="M148.506 82.3213H146.789V77.6591H142.863V82.3213H141.145V71.402H142.863V76.0028H146.789V71.402H148.506V82.3213ZM146.973 82.1373H148.322V71.586H146.973V76.1869H142.679V71.586H141.329V82.0759H142.679V77.4137H146.973V82.1373Z" fill="#F7F7FA"/>
<path d="M152.984 79.4369L157.585 71.5234H159.303V82.1974H157.769V74.0999L153.169 82.1974H151.451V71.5234H152.984V79.4369Z" fill="#F7F7FA"/>
<path d="M159.426 82.3213H157.708V74.4692L153.291 82.3213H151.451V71.402H153.169V79.0701L157.585 71.402H159.426V82.3213ZM157.892 82.1373H159.242V71.586H157.708L153.046 79.8062V71.586H151.696V82.0759H153.23L157.892 73.7331V82.1373Z" fill="#F7F7FA"/>
<path d="M163.352 71.5234L167.156 75.9403V71.5234H168.689V75.9403L172.431 71.5234H174.333L169.855 76.7991L174.456 82.2587H172.431L168.689 77.6579V82.2587H167.156V77.6579L163.352 82.2587H161.328L165.99 76.7991L161.512 71.5234H163.352Z" fill="#F7F7FA"/>
<path d="M174.639 82.3202H172.431L168.812 77.9034V82.3202H167.094V77.9034L163.475 82.3202H161.266L161.389 82.1362L165.99 76.7992L161.389 71.4622H163.475L167.094 75.695V71.4622H168.812V75.695L172.431 71.4622H174.517L174.394 71.6463L169.977 76.9219L174.639 82.3202ZM172.492 82.1362H174.21L169.609 76.7992L174.026 71.6463H172.431L168.505 76.2471V71.6463H167.155V76.2471L163.229 71.6463H161.634L166.051 76.7992L161.45 82.1362H163.168L167.094 77.474V82.1362H168.443V77.474L172.492 82.1362Z" fill="#F7F7FA"/>
<path d="M176.541 71.5234H182.92V72.9344H178.074V76.0016H182.859V77.5352H178.074V80.7865H182.92V82.1974H176.541V71.5234Z" fill="#F7F7FA"/>
<path d="M183.043 82.3213H176.357V71.402H183.043V72.9969H178.197V75.8801H182.982V77.4751H178.197V80.5423H183.043V82.3213ZM176.602 82.1373H182.921V80.9104H178.075V77.4751H182.859V76.2482H178.075V72.9969H182.921V71.77H176.602V82.1373Z" fill="#F7F7FA"/>
<path d="M185.62 71.5234H192.429V72.9344H187.154V82.1974H185.62V71.5234Z" fill="#F7F7FA"/>
<path d="M187.215 82.3213H185.497V71.402H192.491V72.9969H187.215V82.3213ZM185.681 82.1373H187.031V72.8129H192.307V71.586H185.681V82.1373Z" fill="#F7F7FA"/>
<path d="M198.625 71.2162C201.754 71.2162 204.269 73.7313 204.269 76.8599C204.269 79.9885 201.754 82.5036 198.625 82.5036C195.496 82.5036 192.981 79.9885 192.981 76.8599C192.981 73.67 195.435 71.2162 198.625 71.2162ZM198.625 81.0314C201.017 81.0314 202.735 79.3137 202.735 76.7986C202.735 74.2834 201.017 72.5658 198.625 72.5658C196.233 72.5658 194.515 74.2834 194.515 76.7986C194.515 79.2524 196.233 81.0314 198.625 81.0314Z" fill="#F7F7FA"/>
<path d="M198.625 82.5661C195.496 82.5661 192.92 79.9896 192.92 76.861C192.92 73.7325 195.496 71.156 198.625 71.156C201.753 71.156 204.33 73.7325 204.33 76.861C204.33 79.9896 201.753 82.5661 198.625 82.5661ZM198.625 71.2787C195.557 71.2787 193.104 73.7938 193.104 76.7997C193.104 79.8669 195.619 82.3207 198.625 82.3207C201.692 82.3207 204.146 79.8056 204.146 76.7997C204.146 73.7938 201.692 71.2787 198.625 71.2787ZM198.625 81.1551C196.109 81.1551 194.392 79.3148 194.392 76.861C194.392 74.3459 196.232 72.5669 198.625 72.5669C201.14 72.5669 202.857 74.2846 202.857 76.861C202.796 79.3148 201.017 81.1551 198.625 81.1551ZM198.625 72.7509C196.232 72.7509 194.637 74.4686 194.637 76.861C194.637 79.2535 196.355 80.9711 198.625 80.9711C201.017 80.9711 202.612 79.2535 202.612 76.861C202.612 74.4686 201.017 72.7509 198.625 72.7509Z" fill="#F7F7FA"/>
<path d="M206.723 71.5234H210.649C212.55 71.5234 214.023 72.7503 214.023 74.5907C214.023 76.431 212.612 77.6579 210.649 77.6579H208.256V82.2587H206.723V71.5234ZM210.771 76.1856C211.63 76.1856 212.489 75.6949 212.489 74.5907C212.489 73.4251 211.753 72.9957 210.771 72.9957H208.379V76.247H210.771V76.1856Z" fill="#F7F7FA"/>
<path d="M208.378 82.3213H206.661V71.402H210.648C212.673 71.402 214.083 72.7516 214.083 74.5306C214.083 76.4322 212.673 77.6591 210.648 77.6591H208.378V82.3213ZM206.845 82.1373H208.194V77.5364H210.71C212.611 77.5364 213.961 76.3095 213.961 74.5919C213.961 72.8742 212.611 71.6474 210.71 71.6474H206.906V82.1373H206.845ZM210.771 76.2482H208.256V72.8129H210.771C211.63 72.8129 212.611 73.365 212.611 74.5306C212.489 75.6961 211.63 76.2482 210.771 76.2482ZM208.378 76.0642H210.648C211.384 76.0642 212.243 75.6961 212.243 74.5306C212.243 73.365 211.384 72.9969 210.648 72.9969H208.378V76.0642Z" fill="#F7F7FA"/>
<path d="M221.077 71.2162C224.205 71.2162 226.72 73.7313 226.72 76.8599C226.72 79.9885 224.205 82.5036 221.077 82.5036C217.948 82.5036 215.433 79.9885 215.433 76.8599C215.433 73.67 217.887 71.2162 221.077 71.2162ZM221.077 81.0314C223.469 81.0314 225.187 79.3137 225.187 76.7986C225.187 74.2834 223.469 72.5658 221.077 72.5658C218.684 72.5658 216.966 74.2834 216.966 76.7986C216.966 79.2524 218.684 81.0314 221.077 81.0314Z" fill="#F7F7FA"/>
<path d="M221.077 82.5661C217.949 82.5661 215.372 79.9896 215.372 76.861C215.372 73.7325 217.949 71.156 221.077 71.156C224.206 71.156 226.782 73.7325 226.782 76.861C226.782 79.9896 224.206 82.5661 221.077 82.5661ZM221.077 71.2787C218.01 71.2787 215.556 73.7938 215.556 76.7997C215.556 79.8669 218.071 82.3207 221.077 82.3207C224.144 82.3207 226.598 79.8056 226.598 76.7997C226.598 73.7938 224.144 71.2787 221.077 71.2787ZM221.077 81.1551C218.562 81.1551 216.844 79.3148 216.844 76.861C216.844 74.3459 218.562 72.5669 221.077 72.5669C223.592 72.5669 225.31 74.2846 225.31 76.861C225.249 79.3148 223.47 81.1551 221.077 81.1551ZM221.077 72.7509C218.685 72.7509 217.09 74.4686 217.09 76.861C217.09 79.2535 218.685 80.9711 221.077 80.9711C223.47 80.9711 225.065 79.2535 225.065 76.861C225.065 74.4686 223.47 72.7509 221.077 72.7509Z" fill="#F7F7FA"/>
<path d="M229.604 71.5234H236.413V80.7865H237.579V84.4058H236.045V82.1974H229.236V84.4058H227.641V80.7865H228.316C229.052 80.7865 229.543 80.2957 229.543 79.4369V71.5234H229.604ZM234.818 80.7865V72.9344H231.076V79.2529C231.076 79.805 230.892 80.2957 230.524 80.6638H234.818V80.7865Z" fill="#F7F7FA"/>
<path d="M237.579 84.4684H235.862V82.26H229.237V84.4684H227.519V80.665H228.255C228.93 80.665 229.421 80.1743 229.421 79.4381V71.402H236.414V80.665H237.579V84.4684ZM236.107 84.2843H237.457V80.849H236.291V71.586H229.666V79.4381C229.666 80.2969 229.175 80.7877 228.316 80.849H227.764V84.2843H229.114V82.0759H236.107V84.2843ZM234.942 80.849H230.341L230.525 80.665C230.893 80.2969 231.077 79.8062 231.077 79.2541V72.8129H235.003V80.849H234.942ZM230.709 80.665H234.696V73.1196H231.138V79.3154C231.077 79.7448 231.016 80.1743 230.709 80.665Z" fill="#F7F7FA"/>
<path d="M244.388 71.2162C245.983 71.2162 247.639 71.9524 248.682 73.3019L247.639 74.3448C246.903 73.3019 245.922 72.7498 244.511 72.7498C241.996 72.7498 240.523 74.5902 240.523 76.9826C240.523 79.3751 242.057 81.2154 244.634 81.2154C246.045 81.2154 247.026 80.6633 247.762 79.6204L248.805 80.6633C247.762 82.0129 246.106 82.749 244.511 82.749C241.26 82.749 238.99 80.2339 238.99 77.1053C238.867 73.67 241.26 71.2162 244.388 71.2162Z" fill="#F7F7FA"/>
<path d="M244.388 82.5661C241.136 82.5661 238.744 80.0509 238.744 76.861C238.744 73.6098 241.259 71.156 244.388 71.156C246.105 71.156 247.762 71.8921 248.682 73.2417L248.804 73.3644L247.639 74.5299L247.516 74.4072C246.78 73.3644 245.676 72.8123 244.449 72.8123C242.179 72.8123 240.523 74.5299 240.523 76.9224C240.523 79.4375 242.118 81.0325 244.51 81.0325C245.86 81.0325 246.78 80.4804 247.578 79.4375L247.7 79.3148L248.866 80.4804L248.743 80.603C247.762 81.8299 246.105 82.5661 244.388 82.5661ZM244.388 71.2787C241.32 71.2787 238.928 73.6711 238.928 76.7997C238.928 79.9283 241.32 82.3207 244.388 82.3207C245.983 82.3207 247.516 81.5846 248.498 80.419L247.639 79.5602C246.903 80.603 245.799 81.1551 244.51 81.1551C241.995 81.1551 240.278 79.4375 240.278 76.861C240.278 74.3459 241.995 72.5669 244.388 72.5669C245.737 72.5669 246.78 73.119 247.516 74.1619L248.375 73.303C247.455 71.9535 245.921 71.2787 244.388 71.2787Z" fill="#F7F7FA"/>
<path d="M258.375 71.5234L253.774 76.7991L258.559 82.2587H256.534L252.608 77.6579V82.2587H251.013V71.5234H252.608V75.9403L256.534 71.5234H258.375Z" fill="#F7F7FA"/>
<path d="M258.743 82.3213H256.534L252.731 77.9045V82.3213H251.013V71.402H252.731V75.6348L256.534 71.402H258.62L253.958 76.739L258.743 82.3213ZM256.657 82.1373H258.375L253.712 76.8003L253.835 76.6776L258.313 71.5247H256.718L252.608 76.1255V71.5247H251.259V82.0146H252.608V77.3524L252.792 77.5364L256.657 82.1373Z" fill="#F7F7FA"/>
<path d="M264.754 71.2162C267.883 71.2162 270.398 73.7313 270.398 76.8599C270.398 79.9885 267.883 82.5036 264.754 82.5036C261.626 82.5036 259.11 79.9885 259.11 76.8599C259.11 73.67 261.626 71.2162 264.754 71.2162ZM264.754 81.0314C267.147 81.0314 268.864 79.3137 268.864 76.7986C268.864 74.2834 267.147 72.5658 264.754 72.5658C262.362 72.5658 260.644 74.2834 260.644 76.7986C260.644 79.2524 262.362 81.0314 264.754 81.0314Z" fill="#F7F7FA"/>
<path d="M264.755 82.5661C261.626 82.5661 259.05 79.9896 259.05 76.861C259.05 73.7325 261.626 71.156 264.755 71.156C267.883 71.156 270.46 73.7325 270.46 76.861C270.46 79.9896 267.883 82.5661 264.755 82.5661ZM264.755 71.2787C261.688 71.2787 259.234 73.7938 259.234 76.7997C259.234 79.8669 261.749 82.3207 264.755 82.3207C267.822 82.3207 270.276 79.8056 270.276 76.7997C270.276 73.7938 267.822 71.2787 264.755 71.2787ZM264.755 81.1551C262.24 81.1551 260.522 79.3148 260.522 76.861C260.522 74.3459 262.362 72.5669 264.755 72.5669C267.27 72.5669 268.988 74.2846 268.988 76.861C268.988 79.3148 267.209 81.1551 264.755 81.1551ZM264.755 72.7509C262.362 72.7509 260.767 74.4686 260.767 76.861C260.767 79.2535 262.485 80.9711 264.755 80.9711C267.147 80.9711 268.742 79.2535 268.742 76.861C268.742 74.4686 267.147 72.7509 264.755 72.7509Z" fill="#F7F7FA"/>
<path d="M274.385 79.4373L278.986 71.5239H280.704V82.1978H279.17V74.1004L274.569 82.1978H272.852V71.5239H274.385V79.4373ZM274.999 68.8247V68.702H276.226C276.226 69.0087 276.41 69.4382 276.962 69.4382C277.514 69.4382 277.698 69.0701 277.698 68.702H278.925V68.8247C278.925 69.6835 278.25 70.6651 276.9 70.6651C275.674 70.6651 274.999 69.6835 274.999 68.8247Z" fill="#F7F7FA"/>
<path d="M280.827 82.3197H279.109V74.4676L274.692 82.3197H272.852V71.4004H274.569V79.0684L278.986 71.4004H280.827V82.3197ZM279.293 82.1357H280.642V71.5844H279.109L274.447 79.8046V71.5844H273.097V82.0743H274.631L279.293 73.7315V82.1357ZM276.9 70.7256C275.551 70.7256 274.815 69.7441 274.815 68.8239V68.6399H276.226V68.7012C276.226 69.0079 276.348 69.376 276.9 69.376C277.391 69.376 277.575 69.0079 277.575 68.7012V68.5785H277.698H279.048V68.7626C278.986 69.8054 278.25 70.7256 276.9 70.7256ZM275.06 68.8239C275.06 69.6827 275.735 70.5415 276.962 70.5415C278.189 70.5415 278.864 69.6827 278.864 68.8239H277.821C277.821 69.192 277.514 69.56 276.962 69.56C276.41 69.56 276.226 69.192 276.103 68.8239H275.06Z" fill="#F7F7FA"/>
<path d="M146.298 88.8226C149.427 88.8226 151.942 91.3378 151.942 94.4663C151.942 97.5949 149.427 100.11 146.298 100.11C143.17 100.11 140.655 97.5949 140.655 94.4663C140.655 91.2764 143.17 88.8226 146.298 88.8226ZM146.298 98.6378C148.691 98.6378 150.408 96.9201 150.408 94.405C150.408 91.8899 148.691 90.1722 146.298 90.1722C143.906 90.1722 142.188 91.8899 142.188 94.405C142.188 96.8588 143.844 98.6378 146.298 98.6378Z" fill="#F7F7FA"/>
<path d="M146.298 100.172C143.169 100.172 140.593 97.596 140.593 94.4674C140.593 91.3389 143.169 88.7624 146.298 88.7624C149.426 88.7624 152.003 91.3389 152.003 94.4674C152.064 97.596 149.488 100.172 146.298 100.172ZM146.298 88.8851C143.231 88.8851 140.777 91.4002 140.777 94.4061C140.777 97.4733 143.292 99.9271 146.298 99.9271C149.365 99.9271 151.819 97.412 151.819 94.4061C151.88 91.4002 149.365 88.8851 146.298 88.8851ZM146.298 98.7616C143.783 98.7616 142.065 96.9212 142.065 94.4674C142.065 91.9523 143.783 90.1733 146.298 90.1733C148.813 90.1733 150.531 91.891 150.531 94.4674C150.531 96.9212 148.69 98.7616 146.298 98.7616ZM146.298 90.3574C143.905 90.3574 142.31 92.075 142.31 94.4674C142.31 96.8599 143.905 98.5775 146.298 98.5775C148.69 98.5775 150.285 96.8599 150.285 94.4674C150.347 92.075 148.629 90.3574 146.298 90.3574Z" fill="#F7F7FA"/>
<path d="M154.457 89.0676H161.266V90.4786H155.99V93.5458H158.505C160.407 93.5458 161.879 94.7727 161.879 96.613C161.879 98.4534 160.468 99.6802 158.505 99.6802H154.518V89.0676H154.457ZM158.567 98.3307C159.425 98.3307 160.284 97.8399 160.284 96.7357C160.284 95.6315 159.548 95.1407 158.567 95.1407H155.99V98.392H158.567V98.3307Z" fill="#F7F7FA"/>
<path d="M158.444 99.8645H154.334V88.9451H161.327V90.5401H156.052V93.4233H158.444C160.469 93.4233 161.879 94.7729 161.879 96.5519C161.879 98.3309 160.469 99.8645 158.444 99.8645ZM154.518 99.6804H158.444C160.346 99.6804 161.695 98.4535 161.695 96.7359C161.695 95.0182 160.346 93.7914 158.444 93.7914H155.868V90.5401H161.143V89.1905H154.518V99.6804ZM158.567 98.4535H155.868V95.0182H158.567C159.426 95.0182 160.407 95.5703 160.407 96.7359C160.407 97.9014 159.426 98.4535 158.567 98.4535ZM156.052 98.2695H158.567C159.303 98.2695 160.162 97.9014 160.162 96.7359C160.162 95.5703 159.303 95.2023 158.567 95.2023H156.052V98.2695Z" fill="#F7F7FA"/>
<path d="M164.763 89.0676H171.633V99.8029H170.1V90.5399H166.296V97.3491C166.296 98.7601 165.315 100.048 163.597 100.048L163.29 99.8643V98.5147H163.597C164.333 98.5147 164.763 98.0239 164.763 97.3491V89.0676Z" fill="#F7F7FA"/>
<path d="M163.536 99.9861L163.168 99.802V98.3911H163.536C164.211 98.3911 164.579 98.023 164.579 97.3482V89.0054H171.633V99.9247H169.916V90.6617H166.296V97.3482C166.419 98.6365 165.56 99.9861 163.536 99.9861ZM163.352 99.6793L163.536 99.802C165.376 99.802 166.112 98.4524 166.112 97.2256V90.355H170.1V99.618H171.449V89.1281H164.763V97.2256C164.763 97.9617 164.272 98.4524 163.536 98.4524H163.352V99.6793Z" fill="#F7F7FA"/>
<path d="M177.646 89.0676H179.24L182.86 99.8029H181.326L180.345 97.0424H176.357L175.376 99.8029H173.842L177.646 89.0676ZM177.032 95.5088H179.977L178.443 91.092L177.032 95.5088Z" fill="#F7F7FA"/>
<path d="M183.105 99.8647H181.387V99.742L180.405 96.9815H176.602L175.621 99.742H173.903V99.6193L177.645 88.8226H179.363V88.9453L183.105 99.8647ZM181.51 99.6806H182.859L179.24 89.1907H177.829L174.21 99.6806H175.559L176.541 96.9201H180.651V97.0428L181.51 99.6806ZM180.037 95.5705H176.786L178.381 90.7857L180.037 95.5705ZM177.093 95.3865H179.792L178.442 91.3991L177.093 95.3865Z" fill="#F7F7FA"/>
<path d="M189.546 88.8226C191.141 88.8226 192.797 89.5588 193.84 90.9083L192.797 91.9512C192.061 90.9083 191.079 90.3562 189.668 90.3562C187.153 90.3562 185.681 92.1966 185.681 94.589C185.681 96.9815 187.215 98.8218 189.791 98.8218C191.202 98.8218 192.184 98.2697 192.92 97.2268L193.963 98.2697C192.92 99.6193 191.263 100.355 189.668 100.355C186.417 100.355 184.147 97.8403 184.147 94.7117C183.963 91.2764 186.356 88.8226 189.546 88.8226Z" fill="#F7F7FA"/>
<path d="M189.546 100.172C186.294 100.172 183.902 97.6574 183.902 94.4674C183.902 91.2162 186.417 88.7624 189.546 88.7624C191.263 88.7624 192.92 89.4985 193.84 90.8481L193.963 90.9708L192.797 92.1363L192.674 92.0137C191.938 90.9708 190.834 90.4187 189.607 90.4187C187.337 90.4187 185.681 92.1363 185.681 94.5288C185.681 97.0439 187.276 98.6389 189.668 98.6389C191.018 98.6389 191.938 98.0868 192.736 97.0439L192.858 96.9212L194.024 98.0868L193.901 98.2095C192.858 99.4364 191.263 100.172 189.546 100.172ZM189.546 88.8851C186.478 88.8851 184.086 91.4002 184.086 94.4061C184.086 97.5347 186.478 99.9271 189.546 99.9271C191.141 99.9271 192.674 99.191 193.656 98.0254L192.797 97.1666C192.061 98.2095 190.957 98.7616 189.668 98.7616C187.153 98.7616 185.436 97.0439 185.436 94.4674C185.436 91.9523 187.153 90.1733 189.546 90.1733C190.895 90.1733 191.938 90.7254 192.674 91.7683L193.533 90.9095C192.613 89.5599 191.079 88.8851 189.546 88.8851Z" fill="#F7F7FA"/>
<path d="M195.19 89.0676H202.674V90.4786H199.729V99.7416H198.196V90.4786H195.251V89.0676H195.19Z" fill="#F7F7FA"/>
<path d="M199.729 99.8634H198.012V90.6003H195.067V89.0054H202.735V90.6003H199.791V99.8634H199.729ZM198.196 99.6793H199.545V90.4163H202.49V89.1894H195.251V90.4163H198.196V99.6793Z" fill="#F7F7FA"/>
<path d="M206.231 97.0433L210.71 89.1299H212.427V99.8652H210.894V91.7677L206.293 99.8652H204.698V89.1299H206.231V97.0433Z" fill="#F7F7FA"/>
<path d="M212.55 99.8645H210.832V92.0124L206.416 99.8645H204.575V88.9451H206.293V96.6132L210.71 88.9451H212.55V99.8645ZM211.017 99.6804H212.366V89.1905H210.832L206.17 97.4107V89.1905H204.821V99.6804H206.354L211.017 91.3376V99.6804Z" fill="#F7F7FA"/>
<path d="M119.92 45.3294L109.246 39.0723L92.1308 49.0101V29.2572L81.5182 23.1227V23L81.3955 23.1227L70.7829 29.2572V49.1328L53.4837 39.195L42.9938 45.3294H42.8711V45.3908V57.8437L60.0476 67.5975L42.8711 77.6581V89.8043V89.927H42.9938L53.7291 96.1228L70.8442 86.185V105.999L81.4569 112.134H81.5795L92.1922 105.999V86.1236L109.491 96.0614L119.981 89.927H120.104V89.8043V77.3513L102.927 67.5362L120.104 57.5984V45.3908V45.2681H119.92V45.3294Z" fill="#F7F7FA"/>
</svg>
