<svg width="340" height="134" viewBox="0 0 340 134" fill="none" xmlns="http://www.w3.org/2000/svg">
<g clip-path="url(#clip0_3031_1390)">
<rect width="305" height="77.639" transform="translate(18 28)" fill="white"/>
<path fill-rule="evenodd" clip-rule="evenodd" d="M323 28H18V105.639H323V28ZM67.7029 49.3184H61.0841V83.8471H67.7029V49.3184ZM77.387 58.9759V83.847H83.3342V65.8881C84.0284 65.0897 84.8818 64.4452 85.8397 63.996C86.7976 63.5468 87.8389 63.3028 88.8966 63.2797C90.9051 63.2797 91.9615 64.3296 91.9615 67.6814V83.847H97.9087V66.8206C97.9087 61.7603 95.5089 58.4998 90.5269 58.4998C87.5989 58.4998 85.0557 60.1236 82.8517 61.656V58.9759H77.387ZM107.879 58.9753V50.7523H113.859V58.9753H118.75V63.7552H113.859V77.8144C113.859 79.1577 114.511 79.536 116.018 79.536C116.943 79.4771 117.859 79.3175 118.75 79.0599V83.9376C117.194 84.1627 115.626 84.2911 114.055 84.3224C109.64 84.3224 107.912 82.1183 107.912 78.5839V63.7552H104.462V58.9753H107.879ZM145.089 69.9234V72.3427H130.032C130.162 77.5594 132.431 79.5157 135.209 79.5157C137.987 79.5157 139.291 78.2963 140.752 76.5748L145.069 79.2549C142.787 82.7893 139.428 84.3217 134.635 84.3217C128.167 84.3217 124.091 79.3006 124.091 71.4101C124.091 63.5197 128.167 58.4986 134.922 58.4986C141.443 58.4464 145.089 63.9501 145.089 69.9234ZM134.831 62.8937C131.949 62.8937 130.129 64.9022 130.032 68.3453H139.624C139.526 64.9022 137.713 62.8937 134.831 62.8937ZM152.47 83.8466V58.9755H157.941V63.2141H158.032C159.473 60.2471 161.488 58.5712 165.036 58.4799V64.74C164.685 64.6987 164.332 64.6834 163.979 64.6944C161.006 64.6944 158.417 68.0918 158.417 68.7113V83.8466H152.47ZM171.7 58.9759V83.847H177.647V65.8881C178.341 65.0891 179.194 64.4442 180.152 63.9949C181.11 63.5457 182.152 63.302 183.21 63.2797C185.218 63.2797 186.274 64.3296 186.274 67.6814V83.847H192.222V66.8206C192.222 61.7603 189.822 58.4998 184.833 58.4998C181.912 58.4998 179.369 60.1236 177.165 61.656V58.9759H171.7ZM198.841 71.4114C198.841 79.3018 202.916 84.323 209.672 84.323C216.428 84.323 220.51 79.3018 220.51 71.4114C220.51 63.521 216.434 58.4998 209.672 58.4998C202.91 58.4998 198.841 63.521 198.841 71.4114ZM214.563 71.4114C214.563 76.9608 212.978 79.5431 209.672 79.5431C206.366 79.5431 204.781 76.9347 204.781 71.4114C204.781 65.8881 206.366 63.2797 209.672 63.2797C212.978 63.2797 214.563 65.8881 214.563 71.4114ZM227.22 58.9755V83.8466H233.168V68.7113C233.168 68.0918 235.756 64.6944 238.73 64.6944C239.083 64.6834 239.436 64.6987 239.786 64.74V58.4799C236.239 58.5712 234.224 60.2471 232.783 63.2141H232.692V58.9755H227.22ZM246.451 83.8463V58.9752H251.87V61.6553C254.12 59.5947 255.946 58.4991 259.35 58.4991C260.615 58.4434 261.869 58.7572 262.958 59.4022C264.048 60.0472 264.926 60.9955 265.486 62.1313C266.571 60.9438 267.899 60.0045 269.38 59.3776C270.861 58.7508 272.46 58.4511 274.068 58.4991C276.676 58.4991 280.204 60.0251 280.204 65.9592V83.8463H274.276V66.4743C274.276 64.4659 273.461 63.3703 271.309 63.2725C269.77 63.2725 267.71 64.6615 266.321 65.9526V83.8463H260.374V66.4743C260.374 64.4659 259.558 63.3703 257.4 63.2725C255.868 63.2725 253.807 64.6615 252.418 65.9526V83.8463H246.451ZM280.391 55.1701C280.816 55.4401 281.311 55.5774 281.814 55.5645C282.144 55.5664 282.471 55.5018 282.775 55.3745C283.079 55.2472 283.354 55.0598 283.585 54.8236C283.815 54.5874 283.995 54.3072 284.114 53.9997C284.233 53.6923 284.29 53.3639 284.279 53.0343C284.279 52.5312 284.129 52.0395 283.848 51.6221C283.567 51.2047 283.168 50.8806 282.701 50.6912C282.235 50.5017 281.723 50.4556 281.231 50.5586C280.738 50.6617 280.288 50.9092 279.937 51.2696C279.585 51.63 279.35 52.0869 279.26 52.5819C279.169 53.0769 279.229 53.5876 279.431 54.0486C279.632 54.5096 279.966 54.9001 280.391 55.1701ZM280.195 50.6116C280.673 50.289 281.237 50.1155 281.814 50.1129C282.199 50.1121 282.579 50.1869 282.935 50.3333C283.291 50.4796 283.614 50.6946 283.886 50.9659C284.159 51.2371 284.375 51.5594 284.523 51.9143C284.671 52.2692 284.748 52.6498 284.749 53.0343C284.749 53.6116 284.578 54.1759 284.257 54.656C283.937 55.1361 283.481 55.5106 282.948 55.7321C282.415 55.9536 281.828 56.0122 281.262 55.9005C280.696 55.7888 280.175 55.5119 279.766 55.1046C279.357 54.6974 279.078 54.178 278.963 53.6122C278.849 53.0464 278.905 52.4594 279.124 51.9254C279.343 51.3913 279.716 50.9342 280.195 50.6116ZM281.853 53.2299H281.201L281.182 54.7754H280.705V51.2997H282.042C282.825 51.2997 283.17 51.6127 283.17 52.2648C283.182 52.497 283.106 52.7252 282.958 52.904C282.809 53.0828 282.599 53.1991 282.368 53.2299L283.34 54.7754H282.799L281.853 53.2299ZM281.201 51.691V52.8387H281.749L281.79 52.8387C282.236 52.8393 282.72 52.8399 282.72 52.2518C282.72 51.7627 282.323 51.691 281.958 51.691H281.201Z" fill="#E3000F"/>
</g>
<defs>
<clipPath id="clip0_3031_1390">
<rect width="305" height="77.639" fill="white" transform="translate(18 28)"/>
</clipPath>
</defs>
</svg>
