<svg width="360" height="134" viewBox="0 0 360 134" fill="none" xmlns="http://www.w3.org/2000/svg">
<path d="M118.96 34.6886C112.961 31.6496 106.607 29.3757 100.044 27.9211C99.9096 27.8978 99.7741 27.9298 99.6589 28.0129C99.5656 28.0945 99.4913 28.2243 99.4913 28.3656V69.7609C99.4913 73.0681 96.942 75.6612 93.6697 75.6612C90.4033 75.6612 87.8481 73.0681 87.8481 69.7609V26.6063C87.8481 26.3629 87.6674 26.1676 87.4313 26.1574C85.688 26.0525 84.0468 26 82.4274 26C77.7748 26 73.0974 26.3994 68.5221 27.1908C68.3049 27.2316 68.1461 27.4197 68.1461 27.6325V67.9112C68.1461 81.7961 79.5968 93.1098 93.6697 93.1098C107.746 93.1098 119.202 81.7961 119.202 67.9112V35.0851C119.202 34.9145 119.109 34.7586 118.96 34.6886Z" fill="#F7F7FA"/>
<path d="M117.138 83.9774C116.856 83.6203 116.184 83.648 115.882 84.2034C111.473 92.4533 101.878 97.1015 92.2794 96.7327C71.2582 95.9208 63.9718 80.9719 63.9718 67.1672C63.9718 67.1672 63.9718 57.4481 63.9718 64.5523C63.9718 71.6624 63.9718 28.7279 63.9718 28.7279C63.9718 28.5938 63.9163 28.4641 63.7954 28.3854C63.689 28.3008 63.5432 28.276 63.412 28.3008C56.7684 29.789 50.3215 32.0847 44.242 35.1281C44.0933 35.2083 44 35.3468 44 35.5173V69.1874C45.7272 101.213 79.4906 108.714 80.6873 108.714C81.7251 108.704 106.978 105.704 116.115 87.4479C116.163 87.3299 116.222 87.2118 116.284 87.0937C116.376 86.9013 116.452 86.7235 116.534 86.553C116.681 86.2484 116.825 85.9437 116.966 85.6303C116.943 85.6609 116.905 85.6959 116.886 85.7324C117.114 85.1799 117.224 84.8433 117.232 84.8127C117.356 84.3841 117.254 84.1232 117.138 83.9774Z" fill="#F7F7FA"/>
<path d="M144.732 45.437H141.515V49.1844H144.732V45.437Z" fill="#F7F7FA"/>
<path d="M144.724 57.2747H152.461V60.2059H141.517V45.8793H144.724V57.2747Z" fill="#F7F7FA"/>
<path d="M159.224 48.8083C158.675 49.0502 158.21 49.3796 157.835 49.7921C157.456 50.2075 157.168 50.69 156.968 51.2453C156.768 51.8036 156.663 52.4012 156.663 53.044C156.663 53.6853 156.768 54.2873 156.968 54.8485C157.168 55.4126 157.459 55.8994 157.844 56.3148C158.23 56.7273 158.692 57.0494 159.233 57.2855C159.772 57.5202 160.389 57.6397 161.074 57.6397C161.771 57.6397 162.395 57.5173 162.941 57.2753C163.491 57.0305 163.956 56.6996 164.333 56.2813C164.709 55.863 164.994 55.3732 165.187 54.8164C165.378 54.2611 165.479 53.6678 165.479 53.044C165.479 52.3851 165.375 51.7774 165.18 51.2147C164.978 50.6492 164.692 50.1638 164.313 49.7484C163.932 49.3359 163.467 49.0152 162.919 48.7864C162.373 48.5619 161.755 48.4468 161.074 48.4468C160.389 48.4468 159.773 48.5678 159.224 48.8083ZM164.171 46.1467C165.112 46.5257 165.915 47.0489 166.575 47.7209C167.241 48.387 167.759 49.1756 168.129 50.0807C168.496 50.9859 168.686 51.9741 168.686 53.044C168.686 54.0686 168.496 55.0336 168.129 55.9387C167.759 56.8439 167.234 57.6339 166.566 58.3117C165.897 58.9895 165.093 59.5229 164.163 59.915C163.228 60.3071 162.202 60.5039 161.074 60.5039C159.961 60.5039 158.942 60.3158 158.016 59.9383C157.089 59.5594 156.29 59.0361 155.61 58.3641C154.932 57.698 154.407 56.9051 154.037 55.9926C153.67 55.0802 153.48 54.0978 153.48 53.044C153.48 52.0178 153.67 51.0471 154.037 50.1346C154.407 49.2222 154.932 48.4307 155.61 47.7617C156.29 47.0912 157.089 46.5592 158.016 46.1686C158.942 45.7779 159.961 45.5826 161.074 45.5826C162.202 45.5826 163.234 45.7721 164.171 46.1467Z" fill="#F7F7FA"/>
<path d="M178.899 57.4671C180.308 57.4671 181.015 56.9045 181.015 55.7777C181.015 55.2384 180.829 54.8274 180.458 54.5505C180.088 54.2692 179.561 54.1307 178.88 54.1307H175.112V57.4671H178.899ZM178.386 51.5231C178.927 51.5231 179.349 51.3934 179.657 51.1281C179.964 50.8657 180.117 50.5043 180.117 50.048C180.117 49.0948 179.502 48.6167 178.277 48.6167H175.112V51.5231H178.386ZM181.945 46.9273C182.805 47.627 183.237 48.5817 183.237 49.7915C183.237 50.392 183.113 50.9255 182.864 51.3948C182.613 51.8671 182.276 52.2154 181.848 52.4428V52.6338C182.544 52.8641 183.103 53.2722 183.525 53.864C183.946 54.4572 184.153 55.1437 184.153 55.9279C184.153 56.5109 184.054 57.0648 183.849 57.5866C183.642 58.1055 183.321 58.5559 182.882 58.9407C182.451 59.327 181.897 59.633 181.23 59.8619C180.555 60.0893 179.765 60.2059 178.858 60.2059H171.926V45.8793H178.255C179.852 45.8793 181.084 46.2291 181.945 46.9273Z" fill="#F7F7FA"/>
<path d="M196.496 54.5388L194.597 49.0875H194.382L192.458 54.5388H196.496ZM202.183 60.2059H198.634L197.547 57.3592H191.409L190.339 60.2059H186.856L192.735 45.8589H196.263L202.183 60.2059Z" fill="#F7F7FA"/>
<path d="M214.08 48.8622C213.432 48.6261 212.707 48.5109 211.908 48.5109C211.213 48.5109 210.585 48.6202 210.022 48.8418C209.457 49.0619 208.974 49.3767 208.573 49.7834C208.18 50.1871 207.872 50.671 207.657 51.2264C207.442 51.7832 207.336 52.3851 207.336 53.044C207.336 53.7247 207.45 54.3456 207.667 54.9009C207.89 55.4577 208.197 55.93 208.6 56.325C208.999 56.7171 209.474 57.0217 210.031 57.2433C210.588 57.4634 211.197 57.5741 211.865 57.5741C212.679 57.5741 213.437 57.4342 214.146 57.1587C214.85 56.8803 215.485 56.4781 216.036 55.9504L217.857 58.1936C216.229 59.7314 214.178 60.5039 211.699 60.5039C210.588 60.5039 209.566 60.3275 208.639 59.9806C207.712 59.6308 206.919 59.1308 206.257 58.4822C205.593 57.8365 205.081 57.0538 204.708 56.1428C204.335 55.2289 204.154 54.2115 204.154 53.0862C204.154 52.0601 204.332 51.0908 204.695 50.1755C205.059 49.2674 205.584 48.4672 206.268 47.7836C206.951 47.0985 207.778 46.5592 208.744 46.1686C209.718 45.7779 210.811 45.5826 212.04 45.5826C213.152 45.5826 214.168 45.7502 215.102 46.084C216.026 46.4164 216.851 46.9061 217.575 47.5489L215.806 49.8781C215.302 49.4365 214.732 49.0983 214.08 48.8622Z" fill="#F7F7FA"/>
<path d="M224.929 51.4808H231.195V45.8793H234.422V60.2059H231.195V54.4528H224.929V60.2059H221.702V45.8793H224.929V51.4808Z" fill="#F7F7FA"/>
<path d="M249.893 48.7639H242.353V51.459H249.084V54.2604H242.353V57.3184H250.263V60.2059H239.186V45.8793H249.893V48.7639Z" fill="#F7F7FA"/>
<path d="M260.103 56.9732H260.316L263.991 45.8796H267.67L261.984 60.2455H258.2L252.509 45.8796H256.251L260.103 56.9732Z" fill="#F7F7FA"/>
<path d="M278.135 48.7441C277.433 48.5313 276.711 48.4249 275.953 48.4249C275.018 48.4249 274.347 48.5517 273.946 48.7966C273.547 49.0473 273.347 49.3927 273.347 49.8358C273.347 50.2498 273.494 50.5574 273.796 50.7658C274.098 50.9713 274.57 51.1171 275.23 51.2031L277.323 51.4814C278.89 51.6972 280.07 52.1767 280.845 52.923C281.616 53.6722 282.005 54.6532 282.005 55.8659C282.005 56.564 281.874 57.1995 281.601 57.7665C281.33 58.3365 280.937 58.8262 280.411 59.2314C279.898 59.6366 279.247 59.9485 278.468 60.173C277.694 60.3931 276.806 60.5039 275.808 60.5039C274.625 60.5039 273.547 60.3814 272.578 60.1395C271.611 59.8961 270.661 59.4705 269.734 58.8568L271.084 56.2288C271.879 56.7273 272.678 57.0815 273.475 57.2957C274.271 57.5115 275.117 57.6164 276 57.6164C276.942 57.6164 277.641 57.4736 278.108 57.1908C278.568 56.9051 278.797 56.5218 278.797 56.0364C278.797 55.621 278.644 55.2959 278.331 55.0525C278.017 54.8076 277.498 54.6371 276.771 54.5394L274.57 54.2611C273.171 54.0759 272.086 53.6401 271.32 52.9565C270.546 52.2744 270.164 51.2832 270.164 49.9831C270.164 49.2718 270.307 48.6421 270.579 48.094C270.859 47.546 271.248 47.0869 271.745 46.7152C272.247 46.3435 272.849 46.0607 273.551 45.8683C274.257 45.6774 275.036 45.5826 275.892 45.5826C277.048 45.5826 278.108 45.7299 279.074 46.0301C280.043 46.3304 280.895 46.7851 281.619 47.3973L280.04 49.6843C279.472 49.2718 278.838 48.9598 278.135 48.7441Z" fill="#F7F7FA"/>
<path d="M289.202 51.3307L290.76 51.1601L294.804 45.8793H298.754L293.434 52.5711L299.273 60.2059H295.146L290.781 54.0899H289.202V60.2059H286.039V45.8793H289.202V51.3307Z" fill="#F7F7FA"/>
<path d="M307.778 52.2519H307.987L311.194 45.8793H315L309.439 55.4134V60.2059H306.231V55.4134L300.675 45.8793H304.526L307.778 52.2519Z" fill="#F7F7FA"/>
<path d="M144.474 77.3752C144.474 78.5325 144.751 79.4464 145.294 80.1242C145.847 80.8005 146.653 81.1372 147.724 81.1372C148.806 81.1372 149.618 80.8195 150.158 80.1854C150.702 79.5514 150.973 78.6316 150.973 77.4189V69.4008H154.199V77.3504C154.199 78.3518 154.063 79.2598 153.782 80.0805C153.506 80.9011 153.093 81.6022 152.543 82.1882C151.996 82.7683 151.319 83.223 150.513 83.5422C149.707 83.8658 148.78 84.0232 147.724 84.0232C146.681 84.0232 145.759 83.8687 144.956 83.567C144.15 83.2566 143.472 82.8149 142.926 82.2406C142.376 81.659 141.957 80.9696 141.674 80.1548C141.387 79.3429 141.245 78.4305 141.245 77.4189V69.4008H144.474V77.3752Z" fill="#F7F7FA"/>
<path d="M173.19 83.7252H169.985L163.38 74.5745V83.7252H160.257V69.4001H163.147L170.094 79.0639V69.4001H173.19V83.7252Z" fill="#F7F7FA"/>
<path d="M184.006 83.7252H180.776V69.4001H184.006V83.7252Z" fill="#F7F7FA"/>
<path d="M197.597 80.4951H197.811L201.488 69.4H205.164L199.477 83.7659H195.695L190.01 69.4H193.749L197.597 80.4951Z" fill="#F7F7FA"/>
<path d="M220.799 72.2876H213.254V74.9783H219.987V77.7798H213.254V80.8378H221.166V83.7252H210.088V69.4001H220.799V72.2876Z" fill="#F7F7FA"/>
<path d="M233.466 76.605C234.234 76.605 234.852 76.4126 235.316 76.0263C235.778 75.6444 236.011 75.1066 236.011 74.423C236.011 73.7394 235.794 73.2103 235.36 72.8313C234.924 72.4552 234.32 72.2658 233.554 72.2658H230.433V76.605H233.466ZM235.969 69.7441C236.653 69.9715 237.243 70.2995 237.734 70.7266C238.225 71.1522 238.604 71.6696 238.877 72.2658C239.145 72.8663 239.281 73.5339 239.281 74.2758C239.281 75.2582 239.024 76.1283 238.514 76.8834C237.998 77.6399 237.279 78.2083 236.354 78.5931L239.834 83.7252H235.946L233.32 79.4516H230.433V83.7252H227.225V69.4001H233.705C234.526 69.4001 235.284 69.5153 235.969 69.7441Z" fill="#F7F7FA"/>
<path d="M252.939 72.2664C252.235 72.0521 251.511 71.9428 250.756 71.9428C249.814 71.9428 249.147 72.074 248.743 72.3189C248.348 72.571 248.146 72.9121 248.146 73.3538C248.146 73.7706 248.299 74.0811 248.596 74.2866C248.895 74.495 249.373 74.6408 250.032 74.7253L252.128 75.0008C253.693 75.2195 254.865 75.6975 255.639 76.4438C256.416 77.1959 256.805 78.1754 256.805 79.3838C256.805 80.0863 256.671 80.7203 256.401 81.2859C256.13 81.8587 255.737 82.3456 255.213 82.7522C254.692 83.1574 254.044 83.4737 253.265 83.6909C252.488 83.9154 251.606 84.0232 250.607 84.0232C249.422 84.0232 248.348 83.9022 247.377 83.6603C246.411 83.4183 245.461 82.9883 244.538 82.3791L245.88 79.7511C246.682 80.2481 247.476 80.6023 248.275 80.8165C249.078 81.0308 249.914 81.1372 250.797 81.1372C251.736 81.1372 252.441 80.9929 252.905 80.7145C253.369 80.4245 253.601 80.0426 253.601 79.5572C253.601 79.1418 253.441 78.8182 253.13 78.5734C252.814 78.3299 252.301 78.1594 251.564 78.0603L249.37 77.7804C247.965 77.5968 246.886 77.158 246.117 76.4744C245.348 75.7937 244.964 74.8026 244.964 73.5039C244.964 72.7911 245.104 72.1615 245.383 71.6134C245.659 71.0668 246.048 70.6062 246.542 70.236C247.044 69.8643 247.646 69.5845 248.351 69.3906C249.059 69.1982 249.836 69.102 250.692 69.102C251.845 69.102 252.907 69.2521 253.88 69.5495C254.843 69.8497 255.694 70.3045 256.422 70.9196L254.843 73.2051C254.272 72.7911 253.635 72.4807 252.939 72.2664Z" fill="#F7F7FA"/>
<path d="M265.813 83.7252H262.586V69.4001H265.813V83.7252Z" fill="#F7F7FA"/>
<path d="M284.827 72.3095H279.928V83.7252H276.746V72.3095H271.847V69.4001H284.827V72.3095Z" fill="#F7F7FA"/>
<path d="M295.615 75.7713H295.824L299.032 69.4001H302.842L297.281 78.9356V83.7252H294.073V78.9356L288.52 69.4001H292.363L295.615 75.7713Z" fill="#F7F7FA"/>
</svg>
