<svg width="360" height="134" viewBox="0 0 360 134" fill="none" xmlns="http://www.w3.org/2000/svg">
<path d="M92.611 74.403C91.6688 75.4486 90.5294 76.2978 89.2581 76.9018C87.9868 77.5058 86.6088 77.8528 85.2031 77.9229C83.7973 77.9929 82.3916 77.7845 81.0666 77.3098C79.7417 76.835 78.5235 76.1033 77.4821 75.1565C75.906 73.7342 74.7873 71.8762 74.2678 69.8178C73.7483 67.7594 73.8512 65.5931 74.5636 63.5932C75.2759 61.5933 76.5657 59.8498 78.2695 58.5833C79.9734 57.3169 82.0147 56.5845 84.1351 56.4789C86.2554 56.3733 88.3594 56.8993 90.1807 57.9901C92.0019 59.081 93.4586 60.6878 94.3661 62.607C95.2737 64.5262 95.5913 66.6715 95.2789 68.7714C94.9664 70.8712 94.038 72.8312 92.611 74.403Z" fill="#F7F7FA"/>
<path d="M59.8578 67.5637C59.8578 67.5637 65.8063 64.53 69.2762 51.0072C72.7461 37.4844 85.6146 31.1791 85.6146 31.1791C85.6146 31.1791 57.9543 3.75673 37.0158 46.7838C42.2541 48.0544 47.09 50.6187 51.0806 54.2421C55.0713 57.8656 58.0891 62.4323 59.8578 67.5241" fill="#F7F7FA"/>
<path d="M62.3562 20.6495C62.3562 20.6495 83.6715 16.4658 96.2822 43.2338C96.2822 43.2338 110.995 48.0124 124.042 34.331C124.042 34.331 102.409 4.76715 62.4554 20.7288" fill="#F7F7FA"/>
<path d="M97.1346 87.7885C97.1346 87.7885 91.5034 84.1401 78.0797 87.9075C64.6561 91.6748 52.779 83.6643 52.779 83.6643C52.779 83.6643 42.8649 121.338 90.5913 117.927C89.0733 112.757 88.8769 107.289 90.0201 102.024C91.1632 96.7581 93.6094 91.8636 97.1346 87.7885Z" fill="#F7F7FA"/>
<path d="M55.2368 109.083C55.2368 109.083 40.9605 92.725 57.7748 68.4355C57.7748 68.4355 54.5428 53.3265 36.2216 48.9643C36.2216 48.9643 21.4298 82.4738 55.2368 109.083Z" fill="#F7F7FA"/>
<path d="M96.0644 45.5544C96.0644 45.5544 95.7274 52.2563 105.701 61.9919C115.674 71.7275 114.683 86.0236 114.683 86.0236C114.683 86.0236 152.357 75.7923 125.43 36.136C121.717 40.0418 117.082 42.9513 111.951 44.597C106.819 46.2428 101.356 46.5721 96.0644 45.5544Z" fill="#F7F7FA"/>
<path d="M135.463 71.1718C135.463 71.1718 128.444 91.7336 98.9791 89.3145C98.9791 89.3145 87.4986 99.6847 92.8918 117.708C92.8918 117.708 129.316 113.743 135.443 71.1718" fill="#F7F7FA"/>
<path d="M159.512 79.5784H154.119V54.4165H162.784C169.109 54.4165 173.095 57.0338 173.095 62.8237C173.095 68.6135 168.99 71.7066 162.268 71.7066H159.512V79.5784ZM159.393 67.0272H162.427C165.659 67.0272 167.602 65.7781 167.602 63.0616C167.602 60.3451 165.758 59.096 162.467 59.096H159.393V67.0272Z" fill="#F7F7FA"/>
<path d="M177.022 67.0273C177.022 58.5805 182.158 54.02 189.098 54.02C196.87 54.02 201.351 58.9374 201.351 67.0273C201.351 75.9698 196.137 80.0346 189.236 80.0346C181.96 80.0346 177.022 75.4741 177.022 67.0273ZM195.641 67.0273C195.641 61.3168 193.024 58.7589 189.098 58.7589C185.548 58.7589 182.733 61.4159 182.733 67.0273C182.733 72.6387 185.648 75.2957 189.435 75.2957C193.222 75.2957 195.641 72.6783 195.641 67.0273Z" fill="#F7F7FA"/>
<path d="M225.342 78.5675C223.245 79.6278 220.907 80.1201 218.561 79.9951C210.867 79.9951 205.791 75.5933 205.791 67.3249C205.791 58.66 210.867 53.9806 219.096 53.9806C221.263 53.9408 223.416 54.3456 225.421 55.1703L224.231 59.6911C222.815 59.2291 221.339 58.9753 219.849 58.9376C214.892 58.9376 211.502 61.4162 211.502 66.9879C211.502 72.5596 214.734 74.9191 219.81 74.9191C221.343 74.8613 222.853 74.5323 224.271 73.9475L225.342 78.5675Z" fill="#F7F7FA"/>
<path d="M245.091 72.8567H234.344L231.826 79.5784H228.554L238.151 54.4165H241.383L250.801 79.5784H247.431L245.091 72.8567ZM235.395 69.9023H244.04L239.836 58.0054H239.757L235.395 69.9023Z" fill="#F7F7FA"/>
<path d="M262.103 79.5785H258.871V57.4305H251.435V54.4165H269.538V57.4305H262.103V79.5785Z" fill="#F7F7FA"/>
<path d="M272.971 67.0275C272.971 58.9772 277.611 54.0995 284.253 54.0995C291.729 54.0995 295.754 59.4134 295.754 67.0275C295.754 75.5932 290.935 79.9752 284.372 79.9752C277.393 79.9752 272.971 75.0182 272.971 67.0275ZM292.304 67.0275C292.304 60.1272 289.21 57.1134 284.253 57.1134C279.832 57.1134 276.421 60.3057 276.421 67.0275C276.421 73.7492 279.732 76.9415 284.69 76.9415C289.647 76.9415 292.304 73.5311 292.304 67.0275Z" fill="#F7F7FA"/>
<path d="M327.001 79.5785H323.769L322.223 59.909L315.858 79.5785H312.487L306.162 59.9883L304.575 79.5785H301.343L303.505 54.4165H307.451L314.252 76.0491L320.894 54.4165H324.86L327.001 79.5785Z" fill="#F7F7FA"/>
</svg>
